
<svg version="1.1" id="Livello_1" xmlns="http://www.w3.org/2000/svg" xmlns:xlink="http://www.w3.org/1999/xlink" x="0px" y="0px"
	 viewBox="0 0 1493 311" style="enable-background:new 0 0 1493 311;" xml:space="preserve">
<style type="text/css">
	.st0{fill:#034A56;}
	.st1{fill:#D83559;}
</style>
<path class="st0" d="M5898.2,2304.3c0.6-6,0.9-12,0.9-18l0,0v0c0-6-0.3-12-0.9-17.9c-0.3-2.7-0.8-5.3-1.1-7.9
	c-0.5-3.2-0.8-6.4-1.5-9.6c-0.6-3.1-1.4-6-2.2-9c-0.7-2.8-1.3-5.5-2.1-8.2c-0.9-2.9-2-5.8-3-8.7c-1-2.7-1.9-5.4-3-8.1
	c-1.1-2.7-2.4-5.3-3.7-7.9c-1.3-2.8-2.5-5.5-4-8.2c-1.4-2.5-2.9-4.9-4.3-7.3c-1.6-2.6-3.1-5.3-4.8-7.9c-1.8-2.7-3.8-5.2-5.8-7.8
	c-1.6-2.1-3.1-4.4-4.8-6.4c-7.6-9.3-16.1-17.8-25.4-25.4c-2.1-1.7-4.3-3.2-6.4-4.8c-2.6-2-5.2-4-7.9-5.8c-2.6-1.7-5.2-3.2-7.9-4.8
	c-2.5-1.5-4.9-3-7.4-4.4c-2.7-1.4-5.5-2.6-8.2-3.9c-2.6-1.2-5.2-2.6-7.9-3.7c-2.7-1.1-5.4-2-8.1-3c-2.9-1-5.8-2.1-8.7-3.1
	c-2.7-0.8-5.4-1.4-8.1-2.1c-3-0.8-6-1.6-9.1-2.2c-3.1-0.6-6.3-1-9.5-1.4c-2.7-0.4-5.4-0.9-8.1-1.2c-5.9-0.6-11.8-0.9-17.7-0.9
	c-0.1,0-0.1,0-0.2,0c-0.1,0-0.1,0-0.2,0c-5.9,0-11.8,0.3-17.7,0.9c-2.7,0.3-5.4,0.8-8.1,1.2c-3.2,0.5-6.4,0.8-9.5,1.5
	c-3.1,0.6-6,1.5-9,2.2c-2.7,0.7-5.5,1.3-8.2,2.1c-3,0.9-5.8,2-8.7,3c-2.7,1-5.5,1.9-8.1,3c-2.7,1.1-5.3,2.4-7.9,3.7
	c-2.8,1.3-5.5,2.5-8.2,4c-2.5,1.3-4.9,2.9-7.3,4.3c-2.6,1.6-5.3,3.1-7.9,4.8c-2.7,1.8-5.2,3.8-7.8,5.7c-2.2,1.6-4.4,3.1-6.5,4.9
	c-4.6,3.8-9.1,7.8-13.3,12l0,0c0,0,0,0,0,0c-4.2,4.2-8.2,8.7-12,13.3c-1.7,2-3.1,4.2-4.7,6.3c-2,2.7-4,5.3-5.9,8
	c-0.2,0.3-0.5,0.6-0.7,0.9v0.2c-18.9,28.6-29.9,62.9-29.9,99.8s11,71.1,29.9,99.8v0.2c0.2,0.3,0.5,0.6,0.7,0.9
	c1.9,2.8,3.9,5.4,5.9,8.1c1.6,2.1,3,4.2,4.7,6.2c3.8,4.6,7.8,9,12,13.2c0,0,0.1,0.1,0.1,0.1c0,0,0.1,0.1,0.1,0.1
	c4.2,4.2,8.6,8.2,13.2,12c2.1,1.7,4.3,3.2,6.5,4.9c2.6,1.9,5.1,3.9,7.8,5.7c2.6,1.7,5.3,3.2,7.9,4.8c2.4,1.5,4.8,3,7.3,4.3
	c2.7,1.4,5.5,2.7,8.3,4c2.6,1.2,5.2,2.5,7.9,3.6c2.7,1.1,5.4,2,8.2,3c2.9,1,5.7,2.1,8.6,3c2.7,0.8,5.5,1.4,8.3,2.1
	c3,0.8,5.9,1.6,9,2.2c3.2,0.6,6.4,1,9.7,1.5c2.6,0.4,5.2,0.9,7.9,1.1c6,0.6,12,0.9,17.9,0.9l0,0h0c6,0,12-0.3,18-0.9
	c2.6-0.3,5.1-0.8,7.6-1.1c3.3-0.5,6.7-0.9,10-1.5c0.4-0.1,0.8-0.1,1.1-0.2l0.1-0.1c33.6-6.9,65.6-23.3,91.7-49.4
	c26.1-26.1,42.5-58.1,49.4-91.7l0.1-0.1c0.1-0.4,0.1-0.8,0.2-1.1c0.7-3.3,1-6.6,1.5-10C5897.4,2309.4,5897.9,2306.9,5898.2,2304.3z
	 M5798.4,2294.3c-0.1,1.2-0.4,2.4-0.5,3.6c-0.2,1.4-0.4,2.9-0.7,4.3c-0.3,1.4-0.6,2.7-1,4c-0.3,1.2-0.6,2.5-1,3.7
	c-0.4,1.3-0.9,2.6-1.4,3.9c-0.4,1.2-0.8,2.4-1.3,3.6c-0.5,1.2-1.1,2.4-1.7,3.6c-0.6,1.2-1.1,2.5-1.8,3.6c-0.6,1.1-1.3,2.2-2,3.3
	c-0.7,1.2-1.4,2.4-2.1,3.5c-0.8,1.2-1.7,2.4-2.6,3.5c-0.7,1-1.4,1.9-2.1,2.9c-1.7,2-3.5,4-5.4,6s-3.9,3.7-6,5.4
	c-0.9,0.8-1.9,1.4-2.9,2.2c-1.2,0.9-2.3,1.8-3.5,2.6c-1.1,0.8-2.4,1.4-3.6,2.2c-1.1,0.6-2.2,1.3-3.3,1.9c-1.2,0.6-2.5,1.2-3.7,1.8
	c-1.2,0.6-2.3,1.1-3.5,1.6c-1.2,0.5-2.4,0.9-3.7,1.3c-1.3,0.5-2.5,0.9-3.9,1.4c-1.2,0.4-2.5,0.6-3.7,1c-1.3,0.3-2.6,0.7-4,1
	c-1.4,0.3-2.9,0.5-4.4,0.7c-1.2,0.2-2.3,0.4-3.5,0.5c-2.6,0.3-5.3,0.4-8,0.4c-2.7,0-5.4-0.1-8-0.4c-1.2-0.1-2.3-0.3-3.5-0.5
	c-1.5-0.2-3-0.4-4.4-0.7c-1.3-0.3-2.6-0.6-4-1c-1.3-0.3-2.5-0.6-3.8-1c-1.3-0.4-2.5-0.9-3.8-1.3c-1.2-0.4-2.5-0.9-3.7-1.4
	c-1.2-0.5-2.3-1.1-3.5-1.6c-1.2-0.6-2.5-1.1-3.7-1.8c-1.1-0.6-2.2-1.3-3.2-1.9c-1.2-0.7-2.4-1.4-3.6-2.2c-1.2-0.8-2.3-1.7-3.5-2.5
	c-1-0.7-2-1.4-3-2.2c-2-1.7-4-3.4-5.9-5.3c-0.1-0.1-0.1-0.1-0.2-0.2c-1.9-1.9-3.6-3.9-5.3-5.9c-0.8-0.9-1.5-2-2.2-2.9
	c-0.9-1.1-1.8-2.3-2.6-3.5c-0.8-1.2-1.5-2.4-2.2-3.6c-0.6-1.1-1.3-2.1-1.9-3.3c-0.6-1.2-1.2-2.5-1.8-3.7c-0.5-1.2-1.1-2.3-1.6-3.5
	c-0.5-1.2-0.9-2.4-1.3-3.6c-0.5-1.3-1-2.6-1.4-3.9c-0.4-1.2-0.6-2.5-1-3.7c-0.3-1.3-0.7-2.7-1-4c-0.3-1.4-0.5-2.9-0.7-4.3
	c-0.2-1.2-0.4-2.4-0.5-3.6c-0.3-2.6-0.4-5.3-0.4-8v0c0-2.7,0.1-5.4,0.4-8c0.1-1.2,0.4-2.4,0.5-3.6c0.2-1.4,0.4-2.9,0.7-4.3
	c0.3-1.4,0.6-2.7,1-4c0.3-1.2,0.6-2.5,1-3.7c0.4-1.3,0.9-2.6,1.4-3.9c0.4-1.2,0.8-2.5,1.3-3.6c0.5-1.2,1.1-2.4,1.6-3.5
	c0.6-1.2,1.1-2.5,1.8-3.7c0.6-1.1,1.3-2.2,1.9-3.3c0.7-1.2,1.4-2.4,2.1-3.5c0.8-1.2,1.7-2.4,2.6-3.5c0.7-1,1.4-2,2.1-2.9
	c1.7-2.1,3.5-4,5.4-6c0,0,0,0,0,0c1.9-1.9,3.9-3.7,6-5.4c0.9-0.8,1.9-1.4,2.8-2.1c1.2-0.9,2.4-1.8,3.6-2.6c1.1-0.8,2.3-1.4,3.5-2.1
	c1.1-0.7,2.2-1.4,3.3-2c1.2-0.6,2.4-1.2,3.7-1.8c1.2-0.6,2.4-1.1,3.5-1.6c1.2-0.5,2.4-0.9,3.6-1.3c1.3-0.5,2.6-1,3.9-1.4
	c1.2-0.4,2.5-0.6,3.7-1c1.4-0.3,2.7-0.7,4-1c1.4-0.3,2.9-0.5,4.3-0.7c1.2-0.2,2.4-0.4,3.6-0.5c2.6-0.3,5.3-0.4,8-0.4h0
	c2.7,0,5.4,0.1,8,0.4c1.2,0.1,2.4,0.4,3.6,0.5c1.4,0.2,2.9,0.4,4.3,0.7c1.4,0.3,2.7,0.6,4,1c1.2,0.3,2.5,0.6,3.7,0.9
	c1.3,0.4,2.6,0.9,3.9,1.4c1.2,0.4,2.5,0.8,3.6,1.3c1.2,0.5,2.4,1.1,3.5,1.6c1.2,0.6,2.5,1.1,3.7,1.8c1.1,0.6,2.2,1.3,3.3,2
	c1.2,0.7,2.4,1.4,3.5,2.1c1.2,0.8,2.4,1.7,3.5,2.6c1,0.7,1.9,1.4,2.9,2.1c2,1.7,4,3.5,6,5.4c1.9,1.9,3.7,3.9,5.4,6
	c0.8,0.9,1.4,1.9,2.1,2.9c0.9,1.2,1.8,2.3,2.6,3.5c0.8,1.1,1.5,2.4,2.2,3.6c0.6,1.1,1.3,2.2,1.9,3.3c0.6,1.2,1.2,2.5,1.8,3.7
	c0.6,1.2,1.1,2.3,1.6,3.5s0.9,2.4,1.3,3.6c0.5,1.3,1,2.6,1.4,3.9c0.4,1.2,0.6,2.5,1,3.7c0.3,1.3,0.7,2.7,1,4
	c0.3,1.4,0.5,2.9,0.7,4.3c0.2,1.2,0.4,2.4,0.5,3.6c0.3,2.6,0.4,5.3,0.4,8C5798.8,2289,5798.6,2291.7,5798.4,2294.3z"/>
<polygon class="st0" points="2951,2460.2 3057.6,2460.2 3142.6,2297 3227.6,2460.2 3334.3,2460.2 3142.6,2106.5 "/>
<polygon class="st0" points="4593.9,2207.2 4704.9,2207.2 4704.9,2460.7 4804.1,2460.7 4804.1,2207.2 4915,2207.2 4915,2112.8 
	4593.9,2112.8 "/>
<path class="st0" d="M3634.5,2340.2c-0.9,1-1.8,2-2.7,3c-0.4,0.4-0.9,0.9-1.3,1.3c-0.5,0.5-1,1-1.6,1.5c-0.6,0.5-1.1,1-1.7,1.6
	c-0.4,0.4-0.8,0.7-1.2,1.1c-0.6,0.6-1.3,1.1-2,1.6c-0.4,0.3-0.7,0.6-1.1,0.9c-0.7,0.5-1.4,1-2.1,1.6c-0.4,0.3-0.7,0.5-1.1,0.8
	c-0.7,0.5-1.4,0.9-2.1,1.4c-0.4,0.3-0.8,0.5-1.2,0.8c-0.7,0.4-1.4,0.8-2,1.2c-0.5,0.3-1,0.6-1.4,0.9c-0.6,0.4-1.2,0.7-1.9,1
	c-0.6,0.3-1.1,0.6-1.7,0.9c-0.6,0.3-1.1,0.5-1.7,0.8c-0.7,0.3-1.3,0.6-2,0.9c-0.5,0.2-1,0.4-1.5,0.6c-0.8,0.3-1.5,0.6-2.2,0.9
	c-0.4,0.2-0.9,0.3-1.3,0.5c-0.8,0.3-1.6,0.6-2.4,0.9c-0.4,0.1-0.9,0.3-1.3,0.4c-0.9,0.3-1.7,0.5-2.6,0.8c-0.4,0.1-0.9,0.2-1.3,0.3
	c-0.8,0.2-1.7,0.4-2.5,0.6c-0.5,0.1-1,0.2-1.5,0.3c-0.8,0.2-1.6,0.3-2.4,0.4c-0.7,0.1-1.4,0.2-2.1,0.3c-0.6,0.1-1.3,0.2-1.9,0.3
	c-1.3,0.2-2.7,0.3-4,0.4h0c-1.4,0.1-2.7,0.1-4,0.2c-0.6,0-1.3,0-1.9,0c-0.7,0-1.4,0-2.1,0c-0.8,0-1.6-0.1-2.4-0.1
	c-0.5,0-1,0-1.5-0.1c-0.9-0.1-1.7-0.2-2.6-0.2c-0.4-0.1-0.9-0.1-1.3-0.1c-0.9-0.1-1.8-0.2-2.6-0.4c-0.4-0.1-0.9-0.1-1.3-0.2
	c-0.8-0.1-1.7-0.3-2.5-0.5c-0.5-0.1-0.9-0.2-1.4-0.3c-0.8-0.2-1.6-0.4-2.3-0.6c-0.5-0.1-1.1-0.3-1.6-0.4c-0.7-0.2-1.4-0.4-2.1-0.6
	c-0.6-0.2-1.2-0.4-1.8-0.6c-0.6-0.2-1.2-0.4-1.8-0.6c-0.7-0.2-1.4-0.5-2-0.8c-0.5-0.2-1-0.4-1.5-0.6c-0.7-0.3-1.5-0.6-2.2-0.9
	c-0.4-0.2-0.9-0.4-1.3-0.6c-0.8-0.4-1.6-0.7-2.3-1.1c-0.4-0.2-0.8-0.4-1.2-0.6c-0.8-0.4-1.6-0.8-2.3-1.3c-0.4-0.2-0.8-0.5-1.2-0.7
	c-0.8-0.5-1.5-0.9-2.2-1.4c-0.4-0.3-0.9-0.6-1.3-0.9c-0.7-0.5-1.3-0.9-2-1.4c-0.6-0.4-1.1-0.8-1.6-1.2c-0.5-0.4-1-0.8-1.5-1.1
	c-1.1-0.8-2.1-1.7-3.1-2.6l0,0c-1-0.9-2-1.8-3-2.7c-0.5-0.4-0.9-0.9-1.3-1.4c-0.5-0.5-1-1-1.5-1.5c-0.6-0.6-1.1-1.2-1.6-1.8
	c-0.3-0.4-0.7-0.8-1-1.1c-0.6-0.7-1.1-1.3-1.7-2c-0.3-0.4-0.6-0.7-0.9-1.1c-0.5-0.7-1.1-1.4-1.6-2.1c-0.3-0.4-0.5-0.7-0.8-1.1
	c-0.5-0.7-1-1.4-1.4-2.1c-0.3-0.4-0.5-0.8-0.8-1.2c-0.4-0.7-0.8-1.4-1.2-2c-0.3-0.5-0.6-0.9-0.8-1.4c-0.4-0.6-0.7-1.3-1-1.9
	c-0.3-0.6-0.6-1.1-0.9-1.7c-0.3-0.6-0.6-1.1-0.8-1.7c-0.3-0.6-0.6-1.3-0.9-2c-0.2-0.5-0.4-1-0.6-1.5c-0.3-0.7-0.6-1.5-0.9-2.2
	c-0.2-0.4-0.3-0.9-0.5-1.4c-0.3-0.8-0.6-1.6-0.8-2.4c-0.1-0.4-0.3-0.9-0.4-1.3c-0.3-0.9-0.5-1.7-0.8-2.5c-0.1-0.4-0.2-0.9-0.3-1.3
	c-0.2-0.9-0.4-1.7-0.6-2.5c-0.1-0.5-0.2-1-0.3-1.5c-0.2-0.8-0.3-1.6-0.4-2.4c-0.1-0.7-0.2-1.4-0.3-2c-0.1-0.6-0.2-1.3-0.3-1.9
	c-0.2-1.3-0.3-2.6-0.4-3.9c0-0.1,0-0.1,0-0.2c-0.1-1.3-0.1-2.6-0.2-3.9c0-0.6,0-1.3,0-2c0-0.7,0-1.4,0-2c0-0.8,0.1-1.6,0.1-2.4
	c0-0.5,0.1-1,0.1-1.5c0.1-0.9,0.2-1.8,0.2-2.6c0.1-0.4,0.1-0.9,0.1-1.3c0.1-0.9,0.2-1.8,0.4-2.6c0.1-0.4,0.1-0.9,0.2-1.3
	c0.1-0.9,0.3-1.7,0.5-2.5c0.1-0.5,0.2-0.9,0.3-1.4c0.2-0.8,0.4-1.6,0.6-2.3c0.1-0.5,0.3-1.1,0.4-1.6c0.2-0.7,0.4-1.4,0.6-2.1
	c0.2-0.6,0.4-1.2,0.6-1.8c0.2-0.6,0.4-1.2,0.6-1.8c0.2-0.7,0.5-1.3,0.7-2c0.2-0.5,0.4-1,0.6-1.6c0.3-0.7,0.6-1.5,0.9-2.2
	c0.2-0.5,0.4-0.9,0.6-1.3c0.4-0.8,0.7-1.5,1.1-2.3c0.2-0.4,0.4-0.8,0.6-1.2c0.4-0.8,0.8-1.5,1.3-2.3c0.2-0.4,0.5-0.8,0.7-1.2
	c0.4-0.7,0.9-1.5,1.4-2.2c0.3-0.4,0.6-0.9,0.9-1.3c0.4-0.7,0.9-1.3,1.3-2c0.4-0.6,0.8-1.1,1.3-1.7c0.4-0.5,0.7-1,1.1-1.5
	c0.8-1.1,1.7-2.1,2.6-3.1c0.9-1,1.8-2,2.7-3c0.4-0.5,0.9-0.9,1.4-1.4c0.5-0.5,1-1,1.5-1.5c0.6-0.6,1.2-1.1,1.8-1.6
	c0.4-0.3,0.8-0.7,1.1-1c0.7-0.6,1.3-1.1,2-1.7c0.4-0.3,0.7-0.6,1-0.8c0.7-0.5,1.4-1.1,2.1-1.6c0.4-0.3,0.7-0.5,1.1-0.8
	c0.7-0.5,1.4-1,2.1-1.4c0.4-0.3,0.8-0.5,1.2-0.8c0.7-0.4,1.4-0.8,2.1-1.2c0.5-0.3,0.9-0.6,1.4-0.8c0.6-0.4,1.3-0.7,1.9-1
	c0.6-0.3,1.1-0.6,1.7-0.9c0.6-0.3,1.2-0.6,1.7-0.8c0.6-0.3,1.3-0.6,1.9-0.9c0.5-0.2,1-0.4,1.6-0.6c0.7-0.3,1.5-0.6,2.2-0.9
	c0.5-0.2,0.9-0.3,1.4-0.5c0.8-0.3,1.6-0.6,2.4-0.8c0.4-0.1,0.9-0.3,1.3-0.4c0.8-0.2,1.7-0.5,2.5-0.7c0.4-0.1,0.9-0.2,1.4-0.3
	c0.8-0.2,1.6-0.4,2.5-0.6c0.5-0.1,1.1-0.2,1.6-0.3c0.8-0.1,1.5-0.3,2.3-0.4c0.7-0.1,1.4-0.2,2.2-0.3c0.6-0.1,1.2-0.2,1.8-0.2
	c1.3-0.2,2.7-0.3,4-0.4s2.7-0.1,4.1-0.2c0.6,0,1.2,0,1.8,0c0.7,0,1.5,0,2.2,0c0.8,0,1.5,0.1,2.3,0.1c0.6,0,1.1,0,1.6,0.1
	c0.8,0.1,1.7,0.1,2.5,0.2c0.5,0,1,0.1,1.4,0.1c0.9,0.1,1.7,0.2,2.6,0.4c0.5,0.1,0.9,0.1,1.4,0.2c0.8,0.1,1.6,0.3,2.5,0.5
	c0.5,0.1,1,0.2,1.5,0.3c0.8,0.2,1.5,0.4,2.3,0.6c0.6,0.1,1.1,0.3,1.6,0.4c0.7,0.2,1.4,0.4,2,0.6c0.6,0.2,1.2,0.4,1.9,0.6
	c0.6,0.2,1.2,0.4,1.7,0.6c0.7,0.2,1.4,0.5,2.1,0.8c0.5,0.2,1,0.4,1.5,0.6c0.8,0.3,1.5,0.6,2.2,1c0.4,0.2,0.9,0.4,1.3,0.6
	c0.8,0.4,1.6,0.7,2.4,1.1c0.4,0.2,0.8,0.4,1.1,0.6c0.8,0.4,1.6,0.8,2.4,1.3c0.4,0.2,0.8,0.4,1.1,0.7c0.8,0.4,1.5,0.9,2.3,1.4
	c0.4,0.3,0.8,0.5,1.2,0.8c0.7,0.5,1.4,0.9,2,1.4c0.5,0.4,1.1,0.8,1.6,1.2s1.1,0.8,1.6,1.2c1,0.8,2,1.6,3,2.5c0,0,0.1,0.1,0.1,0.1
	l65.9-75.9c0,0,0,0-0.1,0c-2.2-1.9-4.6-3.9-6.9-5.7c-1.1-0.9-2.3-1.7-3.4-2.6c-1.2-0.9-2.4-1.9-3.7-2.7c-1.5-1-3-2-4.5-3
	c-1-0.6-1.9-1.3-2.9-1.9c-1.6-1.1-3.3-2-5-3c-0.9-0.5-1.7-1-2.6-1.5c-1.7-1-3.5-1.9-5.2-2.8c-0.9-0.5-1.7-0.9-2.6-1.4
	c-1.7-0.9-3.4-1.7-5.2-2.5c-1-0.5-1.9-0.9-2.9-1.4c-1.6-0.7-3.3-1.4-4.9-2.1c-1.1-0.5-2.3-0.9-3.4-1.4c-1.5-0.6-3-1.1-4.5-1.7
	c-1.3-0.5-2.6-1-4-1.4c-1.3-0.4-2.7-0.9-4-1.3c-1.5-0.5-3.1-0.9-4.6-1.4c-1.2-0.3-2.4-0.6-3.6-0.9c-1.7-0.4-3.4-0.9-5.2-1.3
	c-1.1-0.2-2.1-0.4-3.2-0.7c-1.9-0.4-3.7-0.8-5.6-1.1c-1-0.2-2-0.3-2.9-0.5c-1.9-0.3-3.9-0.6-5.9-0.9c-1-0.1-2-0.2-3-0.3
	c-1.9-0.2-3.9-0.4-5.8-0.6c-1.1-0.1-2.3-0.1-3.5-0.2c-1.8-0.1-3.6-0.2-5.4-0.3c-1.5,0-3.1,0-4.6,0c-1.4,0-2.9,0-4.3,0
	c-3,0.1-6,0.2-9,0.4h0c-3,0.2-6,0.5-9,0.9c-1.4,0.2-2.7,0.4-4,0.6c-1.6,0.2-3.2,0.4-4.8,0.7c-1.7,0.3-3.3,0.6-4.9,0.9
	c-1.3,0.2-2.5,0.5-3.8,0.8c-1.8,0.4-3.5,0.8-5.3,1.3c-1.1,0.3-2.2,0.5-3.4,0.9c-0.4,0.1-0.9,0.2-1.3,0.3l-0.1,0.1
	c-33.1,9.3-63.9,28-88.2,55.9c-24.2,27.9-38.4,61.1-42.9,95.2l-0.1,0.1c-0.1,0.4-0.1,0.9-0.1,1.3c-0.1,1.1-0.2,2.3-0.4,3.4
	c-0.2,1.8-0.4,3.6-0.5,5.4c-0.1,1.3-0.1,2.6-0.2,3.8c-0.1,1.7-0.2,3.4-0.2,5c0,1.6,0,3.3,0,4.9c0,1.4,0,2.7,0,4c0.1,3,0.2,6,0.4,9
	l0,0v0c0.2,3,0.5,6,0.9,8.9c0.2,1.4,0.4,2.8,0.6,4.2c0.2,1.5,0.4,3.1,0.7,4.6c0.3,1.8,0.7,3.5,1,5.3c0.2,1.1,0.4,2.3,0.7,3.4
	c0.4,1.9,0.9,3.8,1.4,5.7c0.2,1,0.5,2,0.7,2.9c0.5,1.9,1.1,3.8,1.7,5.7c0.3,0.9,0.6,1.9,0.9,2.8c0.6,1.8,1.2,3.6,1.9,5.4
	c0.4,1,0.7,2,1.1,3c0.6,1.7,1.3,3.3,2,5c0.5,1.1,0.9,2.2,1.4,3.4c0.6,1.5,1.3,2.9,2,4.4c0.6,1.3,1.2,2.5,1.8,3.8
	c0.6,1.3,1.3,2.5,2,3.8c0.8,1.4,1.5,2.8,2.3,4.2c0.6,1.1,1.2,2.1,1.9,3.2c0.9,1.5,1.8,3,2.8,4.5c0.6,0.9,1.2,1.8,1.8,2.7
	c1,1.6,2.1,3.2,3.2,4.7c0.6,0.8,1.2,1.6,1.8,2.4c1.1,1.6,2.3,3.2,3.5,4.7c0.6,0.8,1.3,1.6,1.9,2.4c1.2,1.5,2.4,3,3.7,4.4
	c0.8,0.9,1.6,1.8,2.4,2.6c1.2,1.3,2.3,2.6,3.6,3.9c1.1,1.1,2.2,2.2,3.3,3.4c1,1,1.9,2,2.9,2.9c4.3,4.2,8.9,8.1,13.6,11.8
	c1.1,0.9,2.2,1.6,3.3,2.5c1.3,0.9,2.5,1.9,3.8,2.8c1.4,1,2.9,2,4.4,3c1,0.7,2,1.3,3,2c1.6,1,3.2,2,4.9,3c0.9,0.5,1.8,1.1,2.7,1.6
	c1.7,1,3.4,1.9,5.1,2.8c0.9,0.5,1.8,1,2.7,1.4c1.7,0.9,3.4,1.7,5.1,2.5c1,0.5,2,0.9,3,1.4c1.6,0.7,3.2,1.4,4.9,2.1
	c1.2,0.5,2.3,1,3.5,1.4c1.5,0.6,3,1.1,4.4,1.6c1.4,0.5,2.7,1,4.1,1.4c1.3,0.4,2.6,0.8,4,1.2c1.6,0.5,3.1,1,4.7,1.4
	c1.2,0.3,2.3,0.6,3.5,0.9c1.8,0.5,3.5,0.9,5.3,1.3c1,0.2,2.1,0.4,3.1,0.6c1.9,0.4,3.8,0.8,5.7,1.1c0.9,0.2,1.9,0.3,2.9,0.4
	c2,0.3,3.9,0.6,5.9,0.9c1,0.1,1.9,0.2,2.9,0.3c2,0.2,3.9,0.4,5.9,0.6c1.1,0.1,2.2,0.1,3.3,0.2c1.8,0.1,3.6,0.2,5.5,0.3
	c1.5,0,3,0,4.4,0s3,0,4.4,0c2.8-0.1,5.7-0.2,8.5-0.4c0.2,0,0.3,0,0.5,0c0.1,0,0.3,0,0.4,0c2.9-0.2,5.7-0.5,8.5-0.8
	c1.5-0.2,2.9-0.4,4.4-0.6c1.5-0.2,3-0.4,4.4-0.7c1.8-0.3,3.6-0.7,5.4-1c1.1-0.2,2.2-0.4,3.3-0.7c1.9-0.4,3.8-0.9,5.7-1.4
	c1-0.2,1.9-0.5,2.9-0.7c1.9-0.5,3.8-1.1,5.7-1.7c0.9-0.3,1.9-0.6,2.8-0.9c1.8-0.6,3.6-1.2,5.4-1.9c1-0.4,2-0.7,3-1.1
	c1.7-0.6,3.3-1.3,5-2c1.1-0.5,2.3-0.9,3.4-1.4c1.5-0.6,2.9-1.3,4.4-2c1.3-0.6,2.6-1.2,3.8-1.8c1.3-0.6,2.5-1.3,3.8-2
	c1.4-0.8,2.8-1.5,4.2-2.3c1.1-0.6,2.1-1.2,3.2-1.9c1.5-0.9,3.1-1.8,4.6-2.8c0.9-0.6,1.8-1.2,2.7-1.8c1.6-1.1,3.2-2.1,4.8-3.2
	c0.8-0.6,1.6-1.2,2.4-1.7c1.6-1.2,3.2-2.3,4.8-3.5c0.8-0.6,1.6-1.2,2.3-1.9c1.5-1.2,3-2.5,4.5-3.7c0.9-0.7,1.7-1.5,2.5-2.3
	c1.4-1.2,2.7-2.4,4-3.6c1.1-1,2.1-2.1,3.2-3.2c1-1,2.1-2,3.1-3.1c2-2.1,3.9-4.2,5.8-6.4c0.1-0.1,0.2-0.2,0.2-0.3L3634.5,2340.2z"/>
<path class="st0" d="M5394,2340c-0.9,1-1.8,2-2.7,3c-0.4,0.4-0.9,0.9-1.3,1.3c-0.5,0.5-1,1-1.5,1.5c-0.6,0.5-1.1,1-1.7,1.6
	c-0.4,0.4-0.8,0.7-1.2,1.1c-0.6,0.6-1.3,1.1-2,1.6c-0.4,0.3-0.7,0.6-1.1,0.9c-0.7,0.5-1.4,1-2.1,1.6c-0.4,0.3-0.7,0.5-1.1,0.8
	c-0.7,0.5-1.4,0.9-2.1,1.4c-0.4,0.3-0.8,0.5-1.2,0.8c-0.7,0.4-1.4,0.8-2,1.2c-0.5,0.3-1,0.6-1.4,0.8c-0.6,0.4-1.2,0.7-1.9,1
	c-0.6,0.3-1.1,0.6-1.7,0.9c-0.6,0.3-1.1,0.6-1.7,0.8c-0.7,0.3-1.3,0.6-2,0.9c-0.5,0.2-1,0.4-1.5,0.6c-0.8,0.3-1.5,0.6-2.2,0.9
	c-0.4,0.2-0.9,0.3-1.3,0.5c-0.8,0.3-1.6,0.6-2.4,0.9c-0.4,0.1-0.9,0.3-1.3,0.4c-0.9,0.3-1.7,0.5-2.5,0.8c-0.4,0.1-0.9,0.2-1.3,0.3
	c-0.8,0.2-1.7,0.4-2.5,0.6c-0.5,0.1-1,0.2-1.5,0.3c-0.8,0.2-1.6,0.3-2.4,0.5c-0.7,0.1-1.4,0.2-2,0.3c-0.6,0.1-1.3,0.2-1.9,0.3
	c-1.3,0.2-2.7,0.3-4,0.4h0c-1.4,0.1-2.7,0.1-4,0.2c-0.6,0-1.3,0-1.9,0c-0.7,0-1.4,0-2.1,0c-0.8,0-1.6-0.1-2.4-0.1
	c-0.5,0-1-0.1-1.5-0.1c-0.9-0.1-1.7-0.2-2.6-0.2c-0.5,0-0.9-0.1-1.3-0.1c-0.9-0.1-1.8-0.2-2.6-0.4c-0.4-0.1-0.9-0.1-1.3-0.2
	c-0.8-0.1-1.7-0.3-2.5-0.5c-0.5-0.1-0.9-0.2-1.4-0.3c-0.8-0.2-1.5-0.4-2.3-0.6c-0.5-0.1-1.1-0.3-1.6-0.4c-0.7-0.2-1.4-0.4-2.1-0.6
	c-0.6-0.2-1.2-0.4-1.8-0.6c-0.6-0.2-1.2-0.4-1.8-0.6c-0.7-0.2-1.4-0.5-2-0.8c-0.5-0.2-1-0.4-1.5-0.6c-0.7-0.3-1.5-0.6-2.2-0.9
	c-0.4-0.2-0.9-0.4-1.3-0.6c-0.8-0.4-1.5-0.7-2.3-1.1c-0.4-0.2-0.8-0.4-1.2-0.6c-0.8-0.4-1.6-0.8-2.3-1.3c-0.4-0.2-0.8-0.5-1.2-0.7
	c-0.8-0.5-1.5-0.9-2.2-1.4c-0.4-0.3-0.9-0.6-1.3-0.9c-0.7-0.5-1.3-0.9-2-1.4c-0.6-0.4-1.1-0.8-1.6-1.2c-0.5-0.4-1-0.8-1.5-1.1
	c-1-0.8-2.1-1.7-3.1-2.6l0,0c-1-0.9-2-1.8-3-2.7c-0.5-0.4-0.9-0.9-1.3-1.4c-0.5-0.5-1-1-1.5-1.5c-0.6-0.6-1.1-1.2-1.6-1.8
	c-0.3-0.4-0.7-0.8-1-1.1c-0.6-0.7-1.1-1.3-1.7-2c-0.3-0.4-0.6-0.7-0.9-1.1c-0.5-0.7-1.1-1.4-1.6-2.1c-0.3-0.4-0.5-0.7-0.8-1.1
	c-0.5-0.7-1-1.4-1.4-2.1c-0.3-0.4-0.5-0.8-0.8-1.2c-0.4-0.7-0.8-1.4-1.2-2c-0.3-0.5-0.6-0.9-0.8-1.4c-0.4-0.6-0.7-1.3-1-1.9
	c-0.3-0.6-0.6-1.1-0.9-1.7s-0.5-1.1-0.8-1.7c-0.3-0.6-0.6-1.3-0.9-2c-0.2-0.5-0.4-1-0.6-1.5c-0.3-0.7-0.6-1.5-0.9-2.2
	c-0.2-0.4-0.3-0.9-0.5-1.4c-0.3-0.8-0.6-1.6-0.9-2.4c-0.1-0.4-0.3-0.9-0.4-1.3c-0.3-0.9-0.5-1.7-0.8-2.5c-0.1-0.4-0.2-0.9-0.3-1.3
	c-0.2-0.9-0.4-1.7-0.6-2.5c-0.1-0.5-0.2-1-0.3-1.5c-0.2-0.8-0.3-1.6-0.5-2.4c-0.1-0.7-0.2-1.4-0.3-2c-0.1-0.6-0.2-1.3-0.3-1.9
	c-0.2-1.3-0.3-2.6-0.4-3.9c0-0.1,0-0.1,0-0.2c-0.1-1.3-0.1-2.6-0.2-3.9c0-0.6,0-1.3,0-2c0-0.7,0-1.4,0-2c0-0.8,0.1-1.6,0.1-2.4
	c0-0.5,0-1,0.1-1.5c0.1-0.9,0.2-1.8,0.2-2.6c0-0.4,0.1-0.9,0.1-1.3c0.1-0.9,0.2-1.8,0.4-2.6c0.1-0.4,0.1-0.9,0.2-1.3
	c0.1-0.9,0.3-1.7,0.5-2.5c0.1-0.5,0.2-0.9,0.3-1.4c0.2-0.8,0.4-1.6,0.6-2.3c0.1-0.5,0.3-1.1,0.4-1.6c0.2-0.7,0.4-1.4,0.6-2.1
	c0.2-0.6,0.4-1.2,0.6-1.8c0.2-0.6,0.4-1.2,0.6-1.8c0.2-0.7,0.5-1.3,0.7-2c0.2-0.5,0.4-1,0.6-1.6c0.3-0.7,0.6-1.5,0.9-2.2
	c0.2-0.5,0.4-0.9,0.6-1.3c0.4-0.8,0.7-1.5,1.1-2.3c0.2-0.4,0.4-0.8,0.6-1.2c0.4-0.8,0.8-1.5,1.3-2.3c0.2-0.4,0.5-0.8,0.7-1.2
	c0.4-0.7,0.9-1.5,1.4-2.2c0.3-0.4,0.6-0.9,0.9-1.3c0.4-0.7,0.9-1.3,1.3-2c0.4-0.6,0.8-1.1,1.3-1.7c0.4-0.5,0.7-1,1.1-1.5
	c0.8-1.1,1.7-2.1,2.6-3.1c0.9-1,1.8-2,2.7-3c0.4-0.5,0.9-0.9,1.4-1.4c0.5-0.5,1-1,1.5-1.5c0.6-0.6,1.2-1.1,1.8-1.6
	c0.4-0.3,0.8-0.7,1.1-1c0.7-0.6,1.3-1.1,2-1.7c0.4-0.3,0.7-0.6,1-0.8c0.7-0.5,1.4-1.1,2.1-1.6c0.4-0.3,0.7-0.5,1.1-0.8
	c0.7-0.5,1.4-1,2.1-1.4c0.4-0.3,0.8-0.5,1.2-0.8c0.7-0.4,1.4-0.8,2.1-1.2c0.5-0.3,0.9-0.6,1.4-0.8c0.6-0.4,1.3-0.7,1.9-1
	c0.5-0.3,1.1-0.6,1.7-0.9c0.6-0.3,1.2-0.6,1.7-0.8c0.6-0.3,1.3-0.6,1.9-0.9c0.5-0.2,1-0.4,1.5-0.6c0.7-0.3,1.5-0.6,2.2-0.9
	c0.5-0.2,0.9-0.3,1.4-0.5c0.8-0.3,1.6-0.6,2.4-0.8c0.4-0.1,0.9-0.3,1.3-0.4c0.8-0.2,1.7-0.5,2.5-0.7c0.5-0.1,0.9-0.2,1.4-0.4
	c0.8-0.2,1.6-0.4,2.5-0.6c0.5-0.1,1.1-0.2,1.6-0.3c0.8-0.1,1.5-0.3,2.3-0.4c0.7-0.1,1.5-0.2,2.2-0.3c0.6-0.1,1.2-0.2,1.8-0.2
	c1.3-0.2,2.7-0.3,4-0.4c1.4-0.1,2.7-0.1,4-0.2c0.6,0,1.2,0,1.8,0c0.7,0,1.5,0,2.2,0c0.8,0,1.5,0.1,2.3,0.1c0.5,0,1.1,0.1,1.6,0.1
	c0.8,0.1,1.7,0.1,2.5,0.2c0.5,0.1,1,0.1,1.4,0.1c0.9,0.1,1.7,0.2,2.5,0.4c0.5,0.1,0.9,0.1,1.4,0.2c0.8,0.1,1.6,0.3,2.5,0.5
	c0.5,0.1,1,0.2,1.5,0.3c0.8,0.2,1.5,0.4,2.3,0.6c0.5,0.1,1.1,0.3,1.6,0.4c0.7,0.2,1.4,0.4,2,0.6c0.6,0.2,1.2,0.4,1.9,0.6
	c0.6,0.2,1.2,0.4,1.7,0.6c0.7,0.2,1.4,0.5,2.1,0.8c0.5,0.2,1,0.4,1.5,0.6c0.8,0.3,1.5,0.6,2.2,1c0.4,0.2,0.9,0.4,1.3,0.6
	c0.8,0.4,1.6,0.7,2.4,1.1c0.4,0.2,0.8,0.4,1.1,0.6c0.8,0.4,1.6,0.8,2.4,1.3c0.4,0.2,0.8,0.5,1.1,0.7c0.8,0.5,1.5,0.9,2.3,1.4
	c0.4,0.3,0.8,0.6,1.2,0.8c0.7,0.5,1.4,0.9,2,1.4c0.5,0.4,1.1,0.8,1.6,1.2c0.5,0.4,1.1,0.8,1.6,1.2c1,0.8,2,1.6,3,2.5
	c0,0,0.1,0.1,0.1,0.1l65.9-75.9c0,0,0,0,0,0c-2.2-2-4.6-3.9-6.9-5.7c-1.1-0.9-2.3-1.7-3.4-2.6c-1.2-0.9-2.4-1.9-3.7-2.7
	c-1.5-1-3-2-4.5-3c-1-0.6-1.9-1.3-2.9-1.9c-1.6-1-3.3-2-5-3c-0.9-0.5-1.7-1-2.6-1.5c-1.7-1-3.5-1.9-5.2-2.8
	c-0.9-0.5-1.7-0.9-2.6-1.4c-1.7-0.9-3.4-1.7-5.2-2.5c-1-0.5-1.9-0.9-2.9-1.4c-1.6-0.7-3.3-1.4-4.9-2.1c-1.1-0.5-2.3-0.9-3.4-1.4
	c-1.5-0.6-3-1.1-4.5-1.7c-1.3-0.5-2.6-1-4-1.4c-1.3-0.5-2.7-0.9-4-1.3c-1.5-0.5-3.1-1-4.6-1.4c-1.2-0.3-2.4-0.6-3.5-0.9
	c-1.7-0.4-3.5-0.9-5.2-1.3c-1-0.2-2.1-0.4-3.2-0.7c-1.9-0.4-3.7-0.8-5.6-1.1c-1-0.2-2-0.3-3-0.5c-1.9-0.3-3.9-0.6-5.9-0.9
	c-1-0.1-2-0.2-3-0.3c-1.9-0.2-3.9-0.4-5.8-0.6c-1.1-0.1-2.3-0.1-3.5-0.2c-1.8-0.1-3.6-0.2-5.4-0.3c-1.5,0-3.1,0-4.6,0
	c-1.4,0-2.9,0-4.3,0c-3,0.1-6,0.2-9,0.4h0c-3,0.2-6,0.5-9,0.9c-1.4,0.2-2.7,0.4-4,0.6c-1.6,0.2-3.2,0.4-4.8,0.7
	c-1.7,0.3-3.3,0.6-5,1c-1.3,0.2-2.5,0.5-3.8,0.8c-1.8,0.4-3.5,0.8-5.3,1.3c-1.1,0.3-2.2,0.6-3.4,0.9c-0.4,0.1-0.9,0.2-1.3,0.3
	l-0.1,0.1c-33.1,9.3-64,28-88.2,55.9c-24.2,27.9-38.4,61.1-42.9,95.2l-0.1,0.1c-0.1,0.4-0.1,0.9-0.1,1.3c-0.1,1.1-0.2,2.3-0.4,3.4
	c-0.2,1.8-0.4,3.6-0.5,5.4c-0.1,1.3-0.1,2.6-0.2,3.8c-0.1,1.7-0.2,3.4-0.2,5c0,1.6,0,3.3,0,4.9c0,1.3,0,2.7,0,4c0.1,3,0.2,6,0.4,9
	l0,0v0c0.2,3,0.5,6,0.9,9c0.2,1.4,0.4,2.8,0.6,4.2c0.2,1.5,0.4,3.1,0.7,4.6c0.3,1.8,0.7,3.5,1,5.3c0.2,1.1,0.4,2.3,0.7,3.4
	c0.4,1.9,0.9,3.8,1.4,5.7c0.2,1,0.5,2,0.7,2.9c0.5,1.9,1.1,3.8,1.7,5.7c0.3,1,0.6,1.9,0.9,2.8c0.6,1.8,1.2,3.6,1.9,5.4
	c0.4,1,0.7,2,1.1,3c0.6,1.7,1.3,3.3,2,5c0.5,1.1,0.9,2.2,1.4,3.4c0.6,1.5,1.3,2.9,2,4.4c0.6,1.3,1.2,2.5,1.8,3.8
	c0.6,1.3,1.3,2.5,2,3.8c0.8,1.4,1.5,2.8,2.3,4.2c0.6,1.1,1.2,2.1,1.9,3.2c0.9,1.5,1.8,3.1,2.8,4.6c0.6,0.9,1.2,1.8,1.8,2.7
	c1,1.6,2.1,3.2,3.2,4.7c0.6,0.8,1.2,1.6,1.8,2.4c1.1,1.6,2.3,3.2,3.5,4.7c0.6,0.8,1.3,1.6,1.9,2.4c1.2,1.5,2.4,3,3.7,4.5
	c0.8,0.9,1.6,1.8,2.4,2.6c1.2,1.3,2.3,2.6,3.6,3.9c1.1,1.1,2.2,2.2,3.3,3.4c1,1,1.9,2,2.9,2.9c4.3,4.2,8.9,8.1,13.6,11.8
	c1.1,0.9,2.2,1.6,3.3,2.5c1.3,1,2.5,1.9,3.8,2.8c1.4,1,2.9,2,4.4,2.9c1,0.7,2,1.3,3,2c1.6,1,3.2,2,4.9,3c0.9,0.5,1.8,1.1,2.7,1.6
	c1.7,1,3.4,1.9,5.1,2.8c0.9,0.5,1.8,1,2.7,1.4c1.7,0.9,3.4,1.7,5.1,2.5c1,0.5,2,1,3,1.4c1.6,0.7,3.2,1.4,4.9,2.1
	c1.2,0.5,2.3,1,3.5,1.4c1.5,0.6,3,1.1,4.5,1.6c1.4,0.5,2.7,1,4.1,1.4c1.3,0.4,2.6,0.8,4,1.2c1.6,0.5,3.1,1,4.7,1.4
	c1.2,0.3,2.3,0.6,3.5,0.9c1.8,0.4,3.5,0.9,5.3,1.3c1,0.2,2,0.4,3.1,0.6c1.9,0.4,3.8,0.8,5.7,1.1c1,0.2,1.9,0.3,2.9,0.5
	c2,0.3,4,0.6,5.9,0.9c1,0.1,1.9,0.2,2.9,0.3c2,0.2,3.9,0.4,5.9,0.6c1.1,0.1,2.2,0.1,3.3,0.2c1.8,0.1,3.6,0.2,5.5,0.3
	c1.5,0,3,0,4.4,0s3,0,4.5,0c2.8-0.1,5.7-0.2,8.5-0.4c0.2,0,0.3,0,0.5,0c0.1,0,0.3,0,0.4,0c2.8-0.2,5.7-0.5,8.5-0.8
	c1.5-0.2,2.9-0.4,4.4-0.6c1.5-0.2,3-0.4,4.4-0.7c1.8-0.3,3.6-0.7,5.4-1c1.1-0.2,2.2-0.4,3.3-0.7c1.9-0.4,3.8-0.9,5.7-1.4
	c1-0.2,1.9-0.5,2.9-0.7c1.9-0.5,3.8-1.1,5.7-1.7c0.9-0.3,1.9-0.6,2.8-0.9c1.8-0.6,3.6-1.2,5.4-1.9c1-0.4,2-0.7,3-1.1
	c1.7-0.6,3.3-1.3,5-2c1.1-0.5,2.3-0.9,3.4-1.4c1.5-0.6,2.9-1.3,4.4-2c1.3-0.6,2.5-1.2,3.8-1.8c1.3-0.6,2.5-1.3,3.8-2
	c1.4-0.8,2.8-1.5,4.2-2.3c1.1-0.6,2.1-1.2,3.2-1.9c1.5-0.9,3.1-1.8,4.6-2.8c0.9-0.6,1.8-1.2,2.7-1.8c1.6-1.1,3.2-2.1,4.8-3.2
	c0.8-0.6,1.6-1.2,2.4-1.7c1.6-1.2,3.2-2.3,4.8-3.5c0.8-0.6,1.5-1.2,2.3-1.9c1.5-1.2,3-2.5,4.5-3.7c0.9-0.7,1.7-1.5,2.5-2.3
	c1.4-1.2,2.7-2.4,4-3.6c1.1-1,2.1-2.1,3.2-3.2c1-1,2.1-2,3.1-3.1c2-2.1,3.9-4.2,5.8-6.4c0.1-0.1,0.2-0.2,0.2-0.3L5394,2340z"/>
<polygon class="st0" points="3915.1,2367.7 3915.1,2325 4035.6,2325 4035.6,2252.2 3915.1,2252.2 3915.1,2207.1 4071.5,2207.1 
	4071.5,2113.3 3821.4,2112.2 3821.4,2461.3 4077.8,2461.3 4077.8,2367.7 "/>
<path class="st0" d="M2783,2112.4l-150.3,0v348.6h93.6v-96h56.6c69.7,0,126.3-56.7,126.3-126.3
	C2909.3,2169.1,2852.6,2112.4,2783,2112.4z M2783,2270.9h-56.6v-64.3h56.6c17.7,0,32.1,14.4,32.1,32.1
	C2815.1,2256.5,2800.7,2270.9,2783,2270.9z"/>
<g>
	<g>
		<path class="st0" d="M2391.2,2461.9l-148.6-0.1l28.4-94.6h120.1c9.1,0,16.5-7.4,16.5-16.5s-7.4-16.5-16.5-16.5h-60.5
			c-61.3,0-111.2-49.9-111.2-111.2c0-61.3,49.9-111.2,111.2-111.2h149.7l-27.4,94.8h-122.4c-9.1,0-16.5,7.4-16.5,16.5
			s7.4,16.5,16.5,16.5h60.5c61.3,0,111.2,49.9,111.2,111.2C2502.5,2412,2452.6,2461.9,2391.2,2461.9z"/>
	</g>
</g>
<g>
	<g>
		<path class="st0" d="M4377.1,2461.9l-148.6-0.1l28.4-94.6h120.1c9.1,0,16.5-7.4,16.5-16.5s-7.4-16.5-16.5-16.5h-60.5
			c-61.3,0-111.2-49.9-111.2-111.2c0-61.3,49.9-111.2,111.2-111.2h149.7l-27.4,94.8h-122.4c-9.1,0-16.5,7.4-16.5,16.5
			s7.4,16.5,16.5,16.5h60.5c61.3,0,111.2,49.9,111.2,111.2C4488.3,2412,4438.4,2461.9,4377.1,2461.9z"/>
	</g>
</g>
<circle class="st0" cx="5011.3" cy="2406.3" r="55.5"/>
<polygon class="st0" points="6162.1,2233.4 5992,2112.1 5992,2454.7 6086.9,2454.7 6086.9,2285.1 6162.2,2339.1 6237.2,2285.1 
	6237.2,2454.7 6332,2454.7 6332.2,2112.1 "/>
<g>
	<g>
		<path class="st1" d="M1318.3,91.1c0.2-2.5,0.4-5,0.4-7.5l0,0l0,0c0-2.5-0.1-5-0.4-7.5c-0.1-1.1-0.3-2.2-0.5-3.3
			c-0.2-1.3-0.3-2.7-0.6-4c-0.2-1.3-0.6-2.5-0.9-3.7c-0.3-1.1-0.5-2.3-0.9-3.4c-0.4-1.2-0.8-2.4-1.3-3.6c-0.4-1.1-0.8-2.3-1.2-3.4
			c-0.5-1.1-1-2.2-1.5-3.3c-0.5-1.1-1.1-2.3-1.7-3.4c-0.6-1-1.2-2-1.8-3c-0.7-1.1-1.3-2.2-2-3.3c-0.8-1.1-1.6-2.2-2.4-3.3
			c-0.7-0.9-1.3-1.8-2-2.7c-3.2-3.9-6.7-7.4-10.5-10.5c-0.9-0.7-1.8-1.3-2.7-2c-1.1-0.8-2.2-1.6-3.3-2.4c-1.1-0.7-2.2-1.3-3.3-2
			c-1-0.6-2-1.2-3.1-1.8c-1.1-0.6-2.3-1.1-3.4-1.6c-1.1-0.5-2.2-1.1-3.3-1.5c-1.1-0.5-2.2-0.8-3.4-1.2c-1.2-0.4-2.4-0.9-3.6-1.3
			c-1.1-0.3-2.3-0.6-3.4-0.9c-1.3-0.3-2.5-0.7-3.8-0.9c-1.3-0.3-2.6-0.4-3.9-0.6c-1.1-0.2-2.2-0.4-3.4-0.5c-2.4-0.2-4.9-0.4-7.4-0.4
			c0,0-0.1,0-0.1,0c0,0-0.1,0-0.1,0c-2.5,0-4.9,0.1-7.4,0.4c-1.1,0.1-2.2,0.3-3.3,0.5c-1.3,0.2-2.7,0.3-4,0.6
			c-1.3,0.2-2.5,0.6-3.8,0.9c-1.1,0.3-2.3,0.5-3.4,0.9c-1.2,0.4-2.4,0.8-3.6,1.3c-1.1,0.4-2.3,0.8-3.4,1.2c-1.1,0.5-2.2,1-3.3,1.5
			c-1.2,0.5-2.3,1-3.4,1.6c-1,0.6-2,1.2-3.1,1.8c-1.1,0.7-2.2,1.3-3.3,2c-1.1,0.7-2.2,1.6-3.2,2.4c-0.9,0.7-1.8,1.3-2.7,2
			c-1.9,1.6-3.8,3.2-5.5,5l0,0c0,0,0,0,0,0c-1.8,1.8-3.4,3.6-5,5.5c-0.7,0.9-1.3,1.8-2,2.6c-0.8,1.1-1.7,2.2-2.4,3.3
			c-0.1,0.1-0.2,0.3-0.3,0.4v0.1c-7.8,11.9-12.4,26.1-12.4,41.4c0,15.3,4.6,29.5,12.4,41.5v0.1c0.1,0.1,0.2,0.2,0.3,0.4
			c0.8,1.2,1.6,2.2,2.5,3.4c0.7,0.9,1.2,1.8,1.9,2.6c1.6,1.9,3.2,3.8,5,5.5c0,0,0,0,0,0c0,0,0,0,0,0c1.8,1.7,3.6,3.4,5.5,5
			c0.9,0.7,1.8,1.3,2.7,2c1.1,0.8,2.1,1.6,3.2,2.4c1.1,0.7,2.2,1.3,3.3,2c1,0.6,2,1.2,3,1.8c1.1,0.6,2.3,1.1,3.4,1.7
			c1.1,0.5,2.2,1,3.3,1.5c1.1,0.5,2.3,0.8,3.4,1.2c1.2,0.4,2.4,0.9,3.6,1.2c1.1,0.3,2.3,0.6,3.4,0.9c1.2,0.3,2.5,0.7,3.7,0.9
			c1.3,0.3,2.7,0.4,4,0.6c1.1,0.2,2.2,0.4,3.3,0.5c2.5,0.2,5,0.4,7.5,0.4l0,0l0,0c2.5,0,5-0.1,7.5-0.4c1.1-0.1,2.1-0.3,3.2-0.5
			c1.4-0.2,2.8-0.4,4.2-0.6c0.2,0,0.3,0,0.5-0.1l0.1-0.1c14-2.9,27.3-9.7,38.1-20.5c10.8-10.8,17.7-24.1,20.5-38.1l0.1-0.1
			c0-0.2,0-0.3,0.1-0.5c0.3-1.4,0.4-2.8,0.6-4.1C1318,93.3,1318.2,92.2,1318.3,91.1z M1276.9,87c-0.1,0.5-0.1,1-0.2,1.5
			c-0.1,0.6-0.2,1.2-0.3,1.8c-0.1,0.6-0.3,1.1-0.4,1.7c-0.1,0.5-0.2,1-0.4,1.5c-0.2,0.5-0.4,1.1-0.6,1.6c-0.2,0.5-0.3,1-0.6,1.5
			c-0.2,0.5-0.5,1-0.7,1.5c-0.2,0.5-0.5,1-0.7,1.5c-0.2,0.5-0.5,0.9-0.8,1.4c-0.3,0.5-0.6,1-0.9,1.5c-0.3,0.5-0.7,1-1.1,1.5
			c-0.3,0.4-0.6,0.8-0.9,1.2c-0.7,0.8-1.4,1.7-2.2,2.5c-0.8,0.8-1.6,1.5-2.5,2.2c-0.4,0.3-0.8,0.6-1.2,0.9c-0.5,0.4-1,0.7-1.5,1.1
			c-0.5,0.3-1,0.6-1.5,0.9c-0.4,0.3-0.9,0.6-1.4,0.8c-0.5,0.3-1,0.5-1.5,0.7c-0.5,0.2-1,0.5-1.5,0.7c-0.5,0.2-1,0.4-1.5,0.6
			c-0.5,0.2-1.1,0.4-1.6,0.6c-0.5,0.2-1,0.3-1.6,0.4c-0.6,0.1-1.1,0.3-1.7,0.4c-0.6,0.1-1.2,0.2-1.8,0.3c-0.5,0.1-1,0.2-1.5,0.2
			c-1.1,0.1-2.2,0.2-3.3,0.2s-2.2-0.1-3.3-0.2c-0.5,0-1-0.1-1.4-0.2c-0.6-0.1-1.2-0.2-1.8-0.3c-0.6-0.1-1.1-0.3-1.7-0.4
			c-0.5-0.1-1.1-0.2-1.6-0.4c-0.5-0.2-1.1-0.4-1.6-0.6c-0.5-0.2-1-0.3-1.5-0.6c-0.5-0.2-1-0.5-1.4-0.7c-0.5-0.2-1.1-0.5-1.6-0.8
			c-0.5-0.2-0.9-0.5-1.3-0.8c-0.5-0.3-1-0.6-1.5-0.9c-0.5-0.3-1-0.7-1.4-1.1c-0.4-0.3-0.8-0.6-1.2-0.9c-0.8-0.7-1.7-1.4-2.4-2.2
			c0,0-0.1-0.1-0.1-0.1c-0.8-0.8-1.5-1.6-2.2-2.4c-0.3-0.4-0.6-0.8-0.9-1.2c-0.4-0.5-0.7-1-1.1-1.5c-0.3-0.5-0.6-1-0.9-1.5
			c-0.3-0.5-0.6-0.9-0.8-1.4c-0.3-0.5-0.5-1-0.7-1.5c-0.2-0.5-0.5-1-0.7-1.5c-0.2-0.5-0.4-1-0.6-1.5c-0.2-0.5-0.4-1.1-0.6-1.6
			c-0.2-0.5-0.3-1-0.4-1.5c-0.1-0.6-0.3-1.1-0.4-1.7c-0.1-0.6-0.2-1.2-0.3-1.8c-0.1-0.5-0.2-1-0.2-1.5c-0.1-1.1-0.2-2.2-0.2-3.3l0,0
			c0-1.1,0.1-2.2,0.2-3.3c0.1-0.5,0.1-1,0.2-1.5c0.1-0.6,0.2-1.2,0.3-1.8c0.1-0.6,0.3-1.1,0.4-1.7c0.1-0.5,0.2-1,0.4-1.5
			c0.2-0.5,0.4-1.1,0.6-1.6c0.2-0.5,0.3-1,0.6-1.5c0.2-0.5,0.4-1,0.7-1.5c0.2-0.5,0.5-1,0.7-1.5c0.2-0.5,0.5-0.9,0.8-1.4
			c0.3-0.5,0.6-1,0.9-1.5c0.3-0.5,0.7-1,1.1-1.5c0.3-0.4,0.6-0.8,0.9-1.2c0.7-0.9,1.4-1.7,2.2-2.5l0,0c0.8-0.8,1.6-1.5,2.5-2.2
			c0.4-0.3,0.8-0.6,1.2-0.9c0.5-0.4,1-0.8,1.5-1.1c0.5-0.3,1-0.6,1.4-0.9c0.5-0.3,0.9-0.6,1.4-0.8c0.5-0.3,1-0.5,1.5-0.7
			c0.5-0.2,1-0.5,1.5-0.7c0.5-0.2,1-0.4,1.5-0.5c0.5-0.2,1.1-0.4,1.6-0.6c0.5-0.1,1-0.3,1.5-0.4c0.6-0.1,1.1-0.3,1.7-0.4
			c0.6-0.1,1.2-0.2,1.8-0.3c0.5-0.1,1-0.2,1.5-0.2c1.1-0.1,2.2-0.2,3.3-0.2l0,0c1.1,0,2.2,0.1,3.3,0.2c0.5,0,1,0.1,1.5,0.2
			c0.6,0.1,1.2,0.2,1.8,0.3c0.6,0.1,1.1,0.3,1.7,0.4c0.5,0.1,1,0.2,1.5,0.4c0.6,0.2,1.1,0.4,1.6,0.6c0.5,0.2,1,0.4,1.5,0.5
			c0.5,0.2,1,0.5,1.5,0.7c0.5,0.2,1,0.5,1.5,0.7c0.5,0.2,0.9,0.5,1.4,0.8c0.5,0.3,1,0.6,1.5,0.9c0.5,0.3,1,0.7,1.5,1.1
			c0.4,0.3,0.8,0.6,1.2,0.9c0.8,0.7,1.7,1.5,2.5,2.2c0.8,0.8,1.5,1.6,2.2,2.5c0.3,0.4,0.6,0.8,0.9,1.2c0.4,0.5,0.7,1,1.1,1.5
			c0.3,0.5,0.6,1,0.9,1.5c0.3,0.5,0.6,0.9,0.8,1.4c0.3,0.5,0.5,1,0.7,1.5c0.2,0.5,0.5,1,0.7,1.5c0.2,0.5,0.4,1,0.6,1.5
			c0.2,0.5,0.4,1.1,0.6,1.6c0.2,0.5,0.3,1,0.4,1.5c0.1,0.6,0.3,1.1,0.4,1.7c0.1,0.6,0.2,1.2,0.3,1.8c0.1,0.5,0.2,1,0.2,1.5
			c0.1,1.1,0.2,2.2,0.2,3.3S1277,85.9,1276.9,87z"/>
		<polygon class="st1" points="258.2,155.9 302.5,155.9 337.9,88 373.2,155.9 417.5,155.9 337.9,8.9 		"/>
		<polygon class="st1" points="833.3,50.8 879.4,50.8 879.4,156.1 920.6,156.1 920.6,50.8 966.8,50.8 966.8,11.6 833.3,11.6 		"/>
		<path class="st1" d="M517.2,106.1c-0.4,0.4-0.8,0.8-1.1,1.2c-0.2,0.2-0.3,0.3-0.5,0.5c-0.2,0.2-0.4,0.4-0.6,0.6
			c-0.2,0.2-0.5,0.4-0.7,0.7c-0.2,0.2-0.3,0.3-0.5,0.5c-0.3,0.2-0.5,0.5-0.8,0.7c-0.2,0.1-0.3,0.2-0.5,0.4c-0.3,0.2-0.6,0.4-0.9,0.7
			c-0.2,0.1-0.3,0.2-0.5,0.3c-0.3,0.2-0.6,0.4-0.9,0.6c-0.2,0.1-0.3,0.2-0.5,0.3c-0.3,0.2-0.6,0.3-0.8,0.5c-0.2,0.1-0.4,0.2-0.6,0.3
			c-0.3,0.2-0.5,0.3-0.8,0.4c-0.2,0.1-0.5,0.2-0.7,0.4c-0.2,0.1-0.5,0.2-0.7,0.3c-0.3,0.1-0.5,0.3-0.8,0.4c-0.2,0.1-0.4,0.2-0.6,0.3
			c-0.3,0.1-0.6,0.3-0.9,0.4c-0.2,0.1-0.4,0.1-0.6,0.2c-0.3,0.1-0.7,0.2-1,0.3c-0.2,0.1-0.3,0.1-0.5,0.2c-0.3,0.1-0.7,0.2-1.1,0.3
			c-0.2,0-0.4,0.1-0.5,0.1c-0.3,0.1-0.7,0.2-1.1,0.3c-0.2,0-0.4,0.1-0.6,0.1c-0.3,0.1-0.7,0.1-1,0.2c-0.3,0-0.6,0.1-0.8,0.1
			c-0.3,0-0.5,0.1-0.8,0.1c-0.5,0.1-1.1,0.1-1.7,0.2l0,0c-0.6,0-1.1,0.1-1.7,0.1c-0.3,0-0.5,0-0.8,0c-0.3,0-0.6,0-0.9,0
			c-0.3,0-0.7,0-1,0c-0.2,0-0.4,0-0.6,0c-0.4,0-0.7-0.1-1.1-0.1c-0.2,0-0.4,0-0.6-0.1c-0.4,0-0.7-0.1-1.1-0.2c-0.2,0-0.4,0-0.5-0.1
			c-0.3-0.1-0.7-0.1-1-0.2c-0.2,0-0.4-0.1-0.6-0.1c-0.3-0.1-0.7-0.2-1-0.2c-0.2-0.1-0.4-0.1-0.7-0.2c-0.3-0.1-0.6-0.2-0.9-0.3
			c-0.2-0.1-0.5-0.2-0.8-0.2c-0.2-0.1-0.5-0.2-0.7-0.3c-0.3-0.1-0.6-0.2-0.8-0.3c-0.2-0.1-0.4-0.2-0.6-0.3c-0.3-0.1-0.6-0.2-0.9-0.4
			c-0.2-0.1-0.4-0.2-0.5-0.3c-0.3-0.2-0.6-0.3-1-0.5c-0.2-0.1-0.3-0.2-0.5-0.3c-0.3-0.2-0.7-0.3-1-0.5c-0.2-0.1-0.3-0.2-0.5-0.3
			c-0.3-0.2-0.6-0.4-0.9-0.6c-0.2-0.1-0.4-0.2-0.5-0.4c-0.3-0.2-0.6-0.4-0.8-0.6c-0.2-0.2-0.5-0.3-0.7-0.5c-0.2-0.2-0.4-0.3-0.6-0.5
			c-0.4-0.3-0.9-0.7-1.3-1.1l0,0c-0.4-0.4-0.8-0.8-1.2-1.1c-0.2-0.2-0.4-0.4-0.6-0.6c-0.2-0.2-0.4-0.4-0.6-0.6
			c-0.2-0.2-0.5-0.5-0.7-0.7c-0.1-0.2-0.3-0.3-0.4-0.5c-0.2-0.3-0.5-0.6-0.7-0.8c-0.1-0.2-0.2-0.3-0.3-0.4c-0.2-0.3-0.4-0.6-0.7-0.9
			c-0.1-0.2-0.2-0.3-0.3-0.5c-0.2-0.3-0.4-0.6-0.6-0.9c-0.1-0.2-0.2-0.3-0.3-0.5c-0.2-0.3-0.3-0.6-0.5-0.8c-0.1-0.2-0.2-0.4-0.3-0.6
			c-0.2-0.3-0.3-0.5-0.4-0.8c-0.1-0.2-0.2-0.5-0.4-0.7c-0.1-0.2-0.2-0.5-0.3-0.7c-0.1-0.3-0.3-0.5-0.4-0.8c-0.1-0.2-0.2-0.4-0.3-0.6
			c-0.1-0.3-0.2-0.6-0.4-0.9c-0.1-0.2-0.1-0.4-0.2-0.6c-0.1-0.3-0.2-0.7-0.3-1c-0.1-0.2-0.1-0.3-0.2-0.5c-0.1-0.3-0.2-0.7-0.3-1.1
			c0-0.2-0.1-0.4-0.1-0.5c-0.1-0.3-0.2-0.7-0.3-1.1c0-0.2-0.1-0.4-0.1-0.6c-0.1-0.3-0.1-0.7-0.2-1c0-0.3-0.1-0.6-0.1-0.8
			c0-0.3-0.1-0.5-0.1-0.8c-0.1-0.5-0.1-1.1-0.2-1.6c0,0,0,0,0-0.1c0-0.5-0.1-1.1-0.1-1.6c0-0.3,0-0.5,0-0.8c0-0.3,0-0.6,0-0.8
			c0-0.3,0-0.7,0-1c0-0.2,0-0.4,0-0.6c0-0.4,0.1-0.7,0.1-1.1c0-0.2,0-0.4,0.1-0.5c0-0.4,0.1-0.7,0.2-1.1c0-0.2,0-0.4,0.1-0.5
			c0.1-0.4,0.1-0.7,0.2-1c0-0.2,0.1-0.4,0.1-0.6c0.1-0.3,0.2-0.6,0.2-1c0.1-0.2,0.1-0.4,0.2-0.7c0.1-0.3,0.2-0.6,0.3-0.9
			c0.1-0.2,0.2-0.5,0.2-0.7c0.1-0.2,0.2-0.5,0.3-0.8c0.1-0.3,0.2-0.6,0.3-0.8c0.1-0.2,0.2-0.4,0.3-0.6c0.1-0.3,0.2-0.6,0.4-0.9
			c0.1-0.2,0.2-0.4,0.3-0.5c0.2-0.3,0.3-0.6,0.5-1c0.1-0.2,0.2-0.3,0.3-0.5c0.2-0.3,0.3-0.6,0.5-1c0.1-0.2,0.2-0.3,0.3-0.5
			c0.2-0.3,0.4-0.6,0.6-0.9c0.1-0.2,0.2-0.4,0.4-0.5c0.2-0.3,0.4-0.5,0.6-0.8c0.2-0.2,0.3-0.5,0.5-0.7c0.2-0.2,0.3-0.4,0.5-0.6
			c0.3-0.4,0.7-0.9,1.1-1.3c0.4-0.4,0.8-0.8,1.1-1.2c0.2-0.2,0.4-0.4,0.6-0.6c0.2-0.2,0.4-0.4,0.6-0.6c0.2-0.2,0.5-0.5,0.7-0.7
			c0.2-0.1,0.3-0.3,0.5-0.4c0.3-0.2,0.6-0.5,0.8-0.7c0.1-0.1,0.3-0.2,0.4-0.4c0.3-0.2,0.6-0.4,0.9-0.7c0.2-0.1,0.3-0.2,0.5-0.3
			c0.3-0.2,0.6-0.4,0.9-0.6c0.2-0.1,0.3-0.2,0.5-0.3c0.3-0.2,0.6-0.4,0.9-0.5c0.2-0.1,0.4-0.2,0.6-0.3c0.3-0.1,0.5-0.3,0.8-0.4
			c0.2-0.1,0.5-0.2,0.7-0.4c0.2-0.1,0.5-0.2,0.7-0.4c0.3-0.1,0.5-0.2,0.8-0.4c0.2-0.1,0.4-0.2,0.6-0.3c0.3-0.1,0.6-0.2,0.9-0.4
			c0.2-0.1,0.4-0.1,0.6-0.2c0.3-0.1,0.7-0.2,1-0.3c0.2-0.1,0.4-0.1,0.5-0.2c0.3-0.1,0.7-0.2,1-0.3c0.2,0,0.4-0.1,0.6-0.1
			c0.3-0.1,0.7-0.2,1-0.2c0.2,0,0.4-0.1,0.7-0.1c0.3-0.1,0.6-0.1,1-0.2c0.3,0,0.6-0.1,0.9-0.1c0.2,0,0.5-0.1,0.7-0.1
			c0.5-0.1,1.1-0.1,1.7-0.2s1.1-0.1,1.7-0.1c0.2,0,0.5,0,0.7,0c0.3,0,0.6,0,0.9,0c0.3,0,0.6,0,1,0c0.2,0,0.5,0,0.7,0
			c0.3,0,0.7,0.1,1,0.1c0.2,0,0.4,0,0.6,0.1c0.3,0,0.7,0.1,1.1,0.1c0.2,0,0.4,0.1,0.6,0.1c0.3,0.1,0.7,0.1,1,0.2
			c0.2,0,0.4,0.1,0.6,0.1c0.3,0.1,0.6,0.1,1,0.2c0.2,0.1,0.5,0.1,0.7,0.2c0.3,0.1,0.6,0.2,0.8,0.2c0.3,0.1,0.5,0.2,0.8,0.2
			c0.2,0.1,0.5,0.2,0.7,0.3c0.3,0.1,0.6,0.2,0.9,0.3c0.2,0.1,0.4,0.2,0.6,0.2c0.3,0.1,0.6,0.3,0.9,0.4c0.2,0.1,0.3,0.2,0.5,0.2
			c0.3,0.1,0.7,0.3,1,0.5c0.2,0.1,0.3,0.2,0.5,0.2c0.3,0.2,0.7,0.4,1,0.5c0.2,0.1,0.3,0.2,0.5,0.3c0.3,0.2,0.6,0.4,0.9,0.6
			c0.2,0.1,0.3,0.2,0.5,0.3c0.3,0.2,0.6,0.4,0.8,0.6c0.2,0.2,0.4,0.3,0.7,0.5c0.2,0.2,0.4,0.3,0.7,0.5c0.4,0.3,0.8,0.7,1.2,1
			c0,0,0,0,0,0l27.4-31.5c0,0,0,0,0,0c-0.9-0.8-1.9-1.6-2.9-2.4c-0.5-0.4-1-0.7-1.4-1.1c-0.5-0.4-1-0.8-1.5-1.1
			c-0.6-0.4-1.2-0.8-1.8-1.3c-0.4-0.3-0.8-0.5-1.2-0.8c-0.7-0.4-1.4-0.9-2.1-1.3c-0.4-0.2-0.7-0.4-1.1-0.6c-0.7-0.4-1.4-0.8-2.2-1.2
			c-0.4-0.2-0.7-0.4-1.1-0.6c-0.7-0.4-1.4-0.7-2.1-1c-0.4-0.2-0.8-0.4-1.2-0.6c-0.7-0.3-1.4-0.6-2-0.9c-0.5-0.2-0.9-0.4-1.4-0.6
			c-0.6-0.2-1.2-0.5-1.9-0.7c-0.5-0.2-1.1-0.4-1.7-0.6c-0.6-0.2-1.1-0.4-1.7-0.5c-0.6-0.2-1.3-0.4-1.9-0.6c-0.5-0.1-1-0.3-1.5-0.4
			c-0.7-0.2-1.4-0.4-2.2-0.5c-0.4-0.1-0.9-0.2-1.3-0.3c-0.8-0.2-1.5-0.3-2.3-0.5c-0.4-0.1-0.8-0.1-1.2-0.2c-0.8-0.1-1.6-0.2-2.4-0.4
			c-0.4,0-0.8-0.1-1.2-0.1c-0.8-0.1-1.6-0.2-2.4-0.2c-0.5,0-1,0-1.4-0.1c-0.7,0-1.5-0.1-2.2-0.1c-0.6,0-1.3,0-1.9,0
			c-0.6,0-1.2,0-1.8,0c-1.2,0-2.5,0.1-3.7,0.2l0,0c-1.2,0.1-2.5,0.2-3.7,0.4c-0.6,0.1-1.1,0.2-1.7,0.2c-0.7,0.1-1.3,0.2-2,0.3
			c-0.7,0.1-1.4,0.3-2,0.4c-0.5,0.1-1,0.2-1.6,0.3c-0.7,0.2-1.5,0.4-2.2,0.5c-0.5,0.1-0.9,0.2-1.4,0.4c-0.2,0-0.4,0.1-0.5,0.1l0,0
			c-13.8,3.9-26.6,11.6-36.6,23.2c-10.1,11.6-16,25.4-17.8,39.5l0,0c0,0.2,0,0.4-0.1,0.5c-0.1,0.5-0.1,1-0.2,1.4
			c-0.1,0.8-0.2,1.5-0.2,2.2c0,0.5-0.1,1.1-0.1,1.6c0,0.7-0.1,1.4-0.1,2.1c0,0.7,0,1.3,0,2c0,0.6,0,1.1,0,1.7c0,1.2,0.1,2.5,0.2,3.8
			l0,0c0,0,0,0,0,0c0.1,1.2,0.2,2.5,0.4,3.7c0.1,0.6,0.2,1.2,0.2,1.8c0.1,0.6,0.2,1.3,0.3,1.9c0.1,0.7,0.3,1.5,0.4,2.2
			c0.1,0.5,0.2,1,0.3,1.4c0.2,0.8,0.4,1.6,0.6,2.3c0.1,0.4,0.2,0.8,0.3,1.2c0.2,0.8,0.5,1.6,0.7,2.4c0.1,0.4,0.2,0.8,0.4,1.2
			c0.2,0.8,0.5,1.5,0.8,2.3c0.2,0.4,0.3,0.8,0.5,1.2c0.3,0.7,0.5,1.4,0.8,2.1c0.2,0.5,0.4,0.9,0.6,1.4c0.3,0.6,0.6,1.2,0.8,1.8
			c0.2,0.5,0.5,1.1,0.8,1.6c0.3,0.5,0.5,1,0.8,1.6c0.3,0.6,0.6,1.2,1,1.8c0.2,0.5,0.5,0.9,0.8,1.3c0.4,0.6,0.8,1.3,1.2,1.9
			c0.2,0.4,0.5,0.8,0.7,1.1c0.4,0.7,0.9,1.3,1.3,2c0.2,0.3,0.5,0.7,0.7,1c0.5,0.7,1,1.3,1.5,2c0.3,0.3,0.5,0.7,0.8,1
			c0.5,0.6,1,1.2,1.5,1.8c0.3,0.4,0.7,0.7,1,1.1c0.5,0.5,1,1.1,1.5,1.6c0.5,0.5,0.9,0.9,1.4,1.4c0.4,0.4,0.8,0.8,1.2,1.2
			c1.8,1.7,3.7,3.4,5.7,4.9c0.5,0.3,0.9,0.7,1.4,1c0.5,0.4,1,0.8,1.6,1.2c0.6,0.4,1.2,0.8,1.8,1.2c0.4,0.3,0.8,0.6,1.2,0.8
			c0.7,0.4,1.3,0.8,2,1.2c0.4,0.2,0.7,0.5,1.1,0.7c0.7,0.4,1.4,0.8,2.1,1.2c0.4,0.2,0.8,0.4,1.1,0.6c0.7,0.4,1.4,0.7,2.1,1
			c0.4,0.2,0.8,0.4,1.2,0.6c0.7,0.3,1.3,0.6,2,0.9c0.5,0.2,1,0.4,1.4,0.6c0.6,0.2,1.2,0.5,1.8,0.7c0.6,0.2,1.1,0.4,1.7,0.6
			c0.5,0.2,1.1,0.3,1.7,0.5c0.7,0.2,1.3,0.4,2,0.6c0.5,0.1,1,0.2,1.4,0.4c0.7,0.2,1.5,0.4,2.2,0.5c0.4,0.1,0.8,0.2,1.3,0.3
			c0.8,0.2,1.6,0.3,2.4,0.5c0.4,0.1,0.8,0.1,1.2,0.2c0.8,0.1,1.6,0.3,2.5,0.4c0.4,0,0.8,0.1,1.2,0.1c0.8,0.1,1.6,0.2,2.5,0.2
			c0.5,0,0.9,0,1.4,0.1c0.8,0,1.5,0.1,2.3,0.1c0.6,0,1.2,0,1.8,0c0.6,0,1.2,0,1.8,0c1.2,0,2.4-0.1,3.5-0.2c0.1,0,0.1,0,0.2,0
			c0.1,0,0.1,0,0.2,0c1.2-0.1,2.4-0.2,3.5-0.3c0.6-0.1,1.2-0.2,1.8-0.3c0.6-0.1,1.2-0.2,1.8-0.3c0.8-0.1,1.5-0.3,2.2-0.4
			c0.5-0.1,0.9-0.2,1.4-0.3c0.8-0.2,1.6-0.4,2.4-0.6c0.4-0.1,0.8-0.2,1.2-0.3c0.8-0.2,1.6-0.5,2.4-0.7c0.4-0.1,0.8-0.2,1.2-0.4
			c0.8-0.2,1.5-0.5,2.3-0.8c0.4-0.2,0.8-0.3,1.2-0.5c0.7-0.3,1.4-0.5,2.1-0.8c0.5-0.2,0.9-0.4,1.4-0.6c0.6-0.3,1.2-0.5,1.8-0.8
			c0.5-0.2,1.1-0.5,1.6-0.8c0.5-0.3,1-0.5,1.6-0.8c0.6-0.3,1.2-0.6,1.8-1c0.4-0.2,0.9-0.5,1.3-0.8c0.6-0.4,1.3-0.8,1.9-1.2
			c0.4-0.2,0.7-0.5,1.1-0.7c0.7-0.4,1.3-0.9,2-1.3c0.3-0.2,0.7-0.5,1-0.7c0.7-0.5,1.3-1,2-1.5c0.3-0.2,0.6-0.5,1-0.8
			c0.6-0.5,1.3-1,1.9-1.5c0.4-0.3,0.7-0.6,1.1-0.9c0.6-0.5,1.1-1,1.7-1.5c0.5-0.4,0.9-0.9,1.3-1.3c0.4-0.4,0.9-0.8,1.3-1.3
			c0.8-0.9,1.6-1.8,2.4-2.7c0,0,0.1-0.1,0.1-0.1L517.2,106.1z"/>
		<path class="st1" d="M1128.9,106.1c-0.4,0.4-0.8,0.8-1.1,1.2c-0.2,0.2-0.3,0.3-0.5,0.5c-0.2,0.2-0.4,0.4-0.6,0.6
			c-0.2,0.2-0.5,0.4-0.7,0.7c-0.2,0.2-0.3,0.3-0.5,0.5c-0.3,0.2-0.5,0.5-0.8,0.7c-0.2,0.1-0.3,0.2-0.4,0.4c-0.3,0.2-0.6,0.4-0.9,0.7
			c-0.2,0.1-0.3,0.2-0.5,0.3c-0.3,0.2-0.6,0.4-0.9,0.6c-0.2,0.1-0.3,0.2-0.5,0.3c-0.3,0.2-0.6,0.3-0.8,0.5c-0.2,0.1-0.4,0.2-0.6,0.3
			c-0.3,0.2-0.5,0.3-0.8,0.4c-0.2,0.1-0.5,0.2-0.7,0.4c-0.2,0.1-0.5,0.2-0.7,0.3c-0.3,0.1-0.6,0.3-0.8,0.4c-0.2,0.1-0.4,0.2-0.6,0.3
			c-0.3,0.1-0.6,0.3-0.9,0.4c-0.2,0.1-0.4,0.1-0.6,0.2c-0.3,0.1-0.7,0.2-1,0.3c-0.2,0.1-0.3,0.1-0.5,0.2c-0.3,0.1-0.7,0.2-1.1,0.3
			c-0.2,0-0.4,0.1-0.5,0.1c-0.3,0.1-0.7,0.2-1.1,0.3c-0.2,0-0.4,0.1-0.6,0.1c-0.3,0.1-0.7,0.1-1,0.2c-0.3,0-0.6,0.1-0.8,0.1
			c-0.3,0-0.5,0.1-0.8,0.1c-0.6,0.1-1.1,0.1-1.7,0.2l0,0c-0.6,0-1.1,0.1-1.7,0.1c-0.3,0-0.5,0-0.8,0c-0.3,0-0.6,0-0.9,0
			c-0.3,0-0.7,0-1,0c-0.2,0-0.4,0-0.6,0c-0.4,0-0.7-0.1-1.1-0.1c-0.2,0-0.4,0-0.6-0.1c-0.4,0-0.7-0.1-1.1-0.2c-0.2,0-0.4,0-0.6-0.1
			c-0.3-0.1-0.7-0.1-1.1-0.2c-0.2,0-0.4-0.1-0.6-0.1c-0.3-0.1-0.7-0.2-1-0.2c-0.2-0.1-0.4-0.1-0.7-0.2c-0.3-0.1-0.6-0.2-0.9-0.3
			c-0.2-0.1-0.5-0.2-0.8-0.2c-0.2-0.1-0.5-0.2-0.7-0.3c-0.3-0.1-0.6-0.2-0.8-0.3c-0.2-0.1-0.4-0.2-0.6-0.3c-0.3-0.1-0.6-0.2-0.9-0.4
			c-0.2-0.1-0.4-0.2-0.6-0.3c-0.3-0.2-0.6-0.3-1-0.5c-0.2-0.1-0.3-0.2-0.5-0.3c-0.3-0.2-0.7-0.3-1-0.5c-0.2-0.1-0.3-0.2-0.5-0.3
			c-0.3-0.2-0.6-0.4-0.9-0.6c-0.2-0.1-0.4-0.2-0.5-0.4c-0.3-0.2-0.6-0.4-0.8-0.6c-0.2-0.2-0.5-0.3-0.7-0.5c-0.2-0.2-0.4-0.3-0.6-0.5
			c-0.4-0.3-0.9-0.7-1.3-1.1l0,0c-0.4-0.4-0.8-0.8-1.2-1.1c-0.2-0.2-0.4-0.4-0.6-0.6c-0.2-0.2-0.4-0.4-0.6-0.6
			c-0.2-0.2-0.4-0.5-0.7-0.7c-0.1-0.2-0.3-0.3-0.4-0.5c-0.2-0.3-0.5-0.6-0.7-0.8c-0.1-0.2-0.2-0.3-0.3-0.4c-0.2-0.3-0.4-0.6-0.7-0.9
			c-0.1-0.2-0.2-0.3-0.3-0.5c-0.2-0.3-0.4-0.6-0.6-0.9c-0.1-0.2-0.2-0.3-0.3-0.5c-0.2-0.3-0.3-0.6-0.5-0.8c-0.1-0.2-0.2-0.4-0.3-0.6
			c-0.2-0.3-0.3-0.5-0.4-0.8c-0.1-0.2-0.2-0.5-0.4-0.7c-0.1-0.2-0.2-0.5-0.3-0.7c-0.1-0.3-0.3-0.5-0.4-0.8c-0.1-0.2-0.2-0.4-0.3-0.6
			c-0.1-0.3-0.2-0.6-0.4-0.9c-0.1-0.2-0.1-0.4-0.2-0.6c-0.1-0.3-0.2-0.7-0.3-1c-0.1-0.2-0.1-0.3-0.2-0.5c-0.1-0.3-0.2-0.7-0.3-1.1
			c-0.1-0.2-0.1-0.4-0.1-0.5c-0.1-0.3-0.2-0.7-0.3-1.1c-0.1-0.2-0.1-0.4-0.1-0.6c-0.1-0.3-0.1-0.7-0.2-1c-0.1-0.3-0.1-0.6-0.1-0.8
			c0-0.3-0.1-0.5-0.1-0.8c-0.1-0.5-0.1-1.1-0.2-1.6c0,0,0,0,0-0.1c0-0.5-0.1-1.1-0.1-1.6c0-0.3,0-0.5,0-0.8c0-0.3,0-0.6,0-0.8
			c0-0.3,0-0.7,0.1-1c0-0.2,0-0.4,0-0.6c0-0.4,0.1-0.7,0.1-1.1c0-0.2,0-0.4,0.1-0.5c0.1-0.4,0.1-0.7,0.2-1.1c0-0.2,0.1-0.4,0.1-0.5
			c0.1-0.4,0.1-0.7,0.2-1c0-0.2,0.1-0.4,0.1-0.6c0.1-0.3,0.2-0.6,0.2-1c0.1-0.2,0.1-0.4,0.2-0.7c0.1-0.3,0.2-0.6,0.3-0.9
			c0.1-0.2,0.2-0.5,0.2-0.7c0.1-0.2,0.2-0.5,0.3-0.8c0.1-0.3,0.2-0.6,0.3-0.8c0.1-0.2,0.2-0.4,0.3-0.6c0.1-0.3,0.2-0.6,0.4-0.9
			c0.1-0.2,0.2-0.4,0.3-0.5c0.2-0.3,0.3-0.6,0.5-1c0.1-0.2,0.2-0.3,0.3-0.5c0.2-0.3,0.3-0.6,0.5-1c0.1-0.2,0.2-0.3,0.3-0.5
			c0.2-0.3,0.4-0.6,0.6-0.9c0.1-0.2,0.2-0.4,0.4-0.5c0.2-0.3,0.4-0.5,0.6-0.8c0.2-0.2,0.3-0.5,0.5-0.7c0.2-0.2,0.3-0.4,0.5-0.6
			c0.3-0.4,0.7-0.9,1.1-1.3c0.4-0.4,0.8-0.8,1.1-1.2c0.2-0.2,0.4-0.4,0.6-0.6c0.2-0.2,0.4-0.4,0.6-0.6c0.2-0.2,0.5-0.5,0.7-0.7
			c0.2-0.1,0.3-0.3,0.5-0.4c0.3-0.2,0.6-0.5,0.8-0.7c0.1-0.1,0.3-0.2,0.4-0.4c0.3-0.2,0.6-0.4,0.9-0.7c0.2-0.1,0.3-0.2,0.4-0.3
			c0.3-0.2,0.6-0.4,0.9-0.6c0.2-0.1,0.3-0.2,0.5-0.3c0.3-0.2,0.6-0.4,0.9-0.5c0.2-0.1,0.4-0.2,0.6-0.3c0.3-0.1,0.5-0.3,0.8-0.4
			c0.2-0.1,0.5-0.2,0.7-0.4c0.2-0.1,0.5-0.2,0.7-0.4c0.3-0.1,0.5-0.2,0.8-0.4c0.2-0.1,0.4-0.2,0.6-0.3c0.3-0.1,0.6-0.2,0.9-0.4
			c0.2-0.1,0.4-0.1,0.6-0.2c0.3-0.1,0.7-0.2,1-0.3c0.2-0.1,0.4-0.1,0.6-0.2c0.3-0.1,0.7-0.2,1-0.3c0.2,0,0.4-0.1,0.6-0.1
			c0.3-0.1,0.7-0.2,1-0.2c0.2,0,0.4-0.1,0.7-0.1c0.3-0.1,0.6-0.1,0.9-0.2c0.3,0,0.6-0.1,0.9-0.1c0.2,0,0.5-0.1,0.7-0.1
			c0.6-0.1,1.1-0.1,1.7-0.2s1.1-0.1,1.7-0.1c0.2,0,0.5,0,0.7,0c0.3,0,0.6,0,0.9,0c0.3,0,0.6,0,1,0c0.2,0,0.5,0,0.7,0
			c0.3,0,0.7,0.1,1.1,0.1c0.2,0,0.4,0,0.6,0.1c0.3,0,0.7,0.1,1.1,0.1c0.2,0,0.4,0.1,0.6,0.1c0.3,0.1,0.7,0.1,1,0.2
			c0.2,0,0.4,0.1,0.6,0.1c0.3,0.1,0.6,0.1,0.9,0.2c0.2,0.1,0.5,0.1,0.7,0.2c0.3,0.1,0.6,0.2,0.8,0.2c0.3,0.1,0.5,0.2,0.8,0.2
			c0.2,0.1,0.5,0.2,0.7,0.3c0.3,0.1,0.6,0.2,0.9,0.3c0.2,0.1,0.4,0.2,0.6,0.2c0.3,0.1,0.6,0.3,0.9,0.4c0.2,0.1,0.3,0.2,0.5,0.2
			c0.3,0.1,0.7,0.3,1,0.5c0.2,0.1,0.3,0.2,0.5,0.2c0.3,0.2,0.7,0.4,1,0.5c0.2,0.1,0.3,0.2,0.5,0.3c0.3,0.2,0.6,0.4,0.9,0.6
			c0.2,0.1,0.3,0.2,0.5,0.3c0.3,0.2,0.6,0.4,0.8,0.6c0.2,0.2,0.4,0.3,0.7,0.5c0.2,0.2,0.4,0.3,0.7,0.5c0.4,0.3,0.8,0.7,1.2,1
			c0,0,0,0,0,0l27.4-31.5c0,0,0,0,0,0c-0.9-0.8-1.9-1.6-2.9-2.4c-0.5-0.4-0.9-0.7-1.4-1.1c-0.5-0.4-1-0.8-1.5-1.1
			c-0.6-0.4-1.2-0.8-1.8-1.3c-0.4-0.3-0.8-0.5-1.2-0.8c-0.7-0.4-1.4-0.9-2.1-1.3c-0.4-0.2-0.7-0.4-1.1-0.6c-0.7-0.4-1.4-0.8-2.2-1.2
			c-0.4-0.2-0.7-0.4-1.1-0.6c-0.7-0.4-1.4-0.7-2.1-1c-0.4-0.2-0.8-0.4-1.2-0.6c-0.7-0.3-1.4-0.6-2-0.9c-0.5-0.2-0.9-0.4-1.4-0.6
			c-0.6-0.2-1.2-0.5-1.9-0.7c-0.6-0.2-1.1-0.4-1.7-0.6c-0.6-0.2-1.1-0.4-1.7-0.5c-0.6-0.2-1.3-0.4-1.9-0.6c-0.5-0.1-1-0.3-1.5-0.4
			c-0.7-0.2-1.4-0.4-2.2-0.5c-0.4-0.1-0.9-0.2-1.3-0.3c-0.8-0.2-1.6-0.3-2.3-0.5c-0.4-0.1-0.8-0.1-1.2-0.2c-0.8-0.1-1.6-0.2-2.4-0.4
			c-0.4,0-0.8-0.1-1.2-0.1c-0.8-0.1-1.6-0.2-2.4-0.2c-0.5,0-1,0-1.4-0.1c-0.7,0-1.5-0.1-2.2-0.1c-0.6,0-1.3,0-1.9,0
			c-0.6,0-1.2,0-1.8,0c-1.2,0-2.5,0.1-3.7,0.2l0,0c-1.2,0.1-2.5,0.2-3.7,0.4c-0.6,0.1-1.1,0.2-1.7,0.2c-0.7,0.1-1.3,0.2-2,0.3
			c-0.7,0.1-1.4,0.3-2.1,0.4c-0.5,0.1-1.1,0.2-1.6,0.3c-0.7,0.2-1.5,0.4-2.2,0.5c-0.5,0.1-0.9,0.2-1.4,0.4c-0.2,0-0.4,0.1-0.5,0.1
			l0,0c-13.8,3.9-26.6,11.6-36.6,23.2c-10.1,11.6-15.9,25.4-17.8,39.5l0,0c0,0.2,0,0.4-0.1,0.5c-0.1,0.5-0.1,1-0.2,1.4
			c-0.1,0.8-0.2,1.5-0.2,2.2c0,0.5-0.1,1.1-0.1,1.6c0,0.7-0.1,1.4-0.1,2.1c0,0.7,0,1.3,0,2c0,0.6,0,1.1,0,1.7c0,1.2,0.1,2.5,0.2,3.8
			l0,0c0,0,0,0,0,0c0.1,1.2,0.2,2.5,0.4,3.7c0.1,0.6,0.2,1.2,0.2,1.8c0.1,0.6,0.2,1.3,0.3,1.9c0.1,0.7,0.3,1.5,0.4,2.2
			c0.1,0.5,0.2,1,0.3,1.4c0.2,0.8,0.4,1.6,0.6,2.3c0.1,0.4,0.2,0.8,0.3,1.2c0.2,0.8,0.4,1.6,0.7,2.4c0.1,0.4,0.2,0.8,0.4,1.2
			c0.2,0.8,0.5,1.5,0.8,2.3c0.2,0.4,0.3,0.8,0.4,1.2c0.3,0.7,0.6,1.4,0.8,2.1c0.2,0.5,0.4,0.9,0.6,1.4c0.3,0.6,0.6,1.2,0.8,1.8
			c0.2,0.5,0.5,1.1,0.8,1.6c0.3,0.5,0.5,1,0.8,1.6c0.3,0.6,0.6,1.2,0.9,1.8c0.2,0.5,0.5,0.9,0.8,1.3c0.4,0.6,0.8,1.3,1.2,1.9
			c0.2,0.4,0.5,0.8,0.7,1.1c0.4,0.7,0.9,1.3,1.3,2c0.2,0.3,0.5,0.7,0.7,1c0.5,0.7,1,1.3,1.5,2c0.3,0.3,0.5,0.7,0.8,1
			c0.5,0.6,1,1.2,1.5,1.8c0.3,0.4,0.7,0.7,1,1.1c0.5,0.5,1,1.1,1.5,1.6c0.4,0.5,0.9,0.9,1.4,1.4c0.4,0.4,0.8,0.8,1.2,1.2
			c1.8,1.7,3.7,3.4,5.7,4.9c0.4,0.3,0.9,0.7,1.4,1c0.5,0.4,1.1,0.8,1.6,1.2c0.6,0.4,1.2,0.8,1.8,1.2c0.4,0.3,0.8,0.6,1.2,0.8
			c0.7,0.4,1.3,0.8,2,1.2c0.4,0.2,0.7,0.5,1.1,0.7c0.7,0.4,1.4,0.8,2.1,1.2c0.4,0.2,0.8,0.4,1.1,0.6c0.7,0.4,1.4,0.7,2.1,1
			c0.4,0.2,0.8,0.4,1.2,0.6c0.7,0.3,1.3,0.6,2,0.9c0.5,0.2,1,0.4,1.4,0.6c0.6,0.2,1.2,0.5,1.8,0.7c0.6,0.2,1.1,0.4,1.7,0.6
			c0.6,0.2,1.1,0.3,1.7,0.5c0.7,0.2,1.3,0.4,1.9,0.6c0.5,0.1,1,0.2,1.4,0.4c0.7,0.2,1.4,0.4,2.2,0.5c0.4,0.1,0.8,0.2,1.3,0.3
			c0.8,0.2,1.6,0.3,2.4,0.5c0.4,0.1,0.8,0.1,1.2,0.2c0.8,0.1,1.6,0.3,2.5,0.4c0.4,0,0.8,0.1,1.2,0.1c0.8,0.1,1.6,0.2,2.4,0.2
			c0.5,0,0.9,0,1.4,0.1c0.8,0,1.5,0.1,2.3,0.1c0.6,0,1.2,0,1.8,0c0.6,0,1.2,0,1.8,0c1.2,0,2.4-0.1,3.5-0.2c0.1,0,0.1,0,0.2,0
			c0.1,0,0.1,0,0.2,0c1.2-0.1,2.4-0.2,3.5-0.3c0.6-0.1,1.2-0.2,1.8-0.3c0.6-0.1,1.2-0.2,1.8-0.3c0.8-0.1,1.5-0.3,2.2-0.4
			c0.5-0.1,0.9-0.2,1.4-0.3c0.8-0.2,1.6-0.4,2.4-0.6c0.4-0.1,0.8-0.2,1.2-0.3c0.8-0.2,1.6-0.5,2.4-0.7c0.4-0.1,0.8-0.2,1.2-0.4
			c0.8-0.2,1.5-0.5,2.3-0.8c0.4-0.2,0.8-0.3,1.2-0.5c0.7-0.3,1.4-0.5,2.1-0.8c0.5-0.2,0.9-0.4,1.4-0.6c0.6-0.3,1.2-0.5,1.8-0.8
			c0.5-0.2,1.1-0.5,1.6-0.8c0.5-0.3,1-0.5,1.6-0.8c0.6-0.3,1.2-0.6,1.8-1c0.4-0.2,0.9-0.5,1.3-0.8c0.6-0.4,1.3-0.8,1.9-1.2
			c0.4-0.2,0.7-0.5,1.1-0.7c0.7-0.4,1.3-0.9,2-1.3c0.3-0.2,0.7-0.5,1-0.7c0.7-0.5,1.3-1,2-1.5c0.3-0.2,0.6-0.5,1-0.8
			c0.6-0.5,1.3-1,1.9-1.5c0.4-0.3,0.7-0.6,1.1-0.9c0.6-0.5,1.1-1,1.7-1.5c0.4-0.4,0.9-0.9,1.3-1.3c0.4-0.4,0.9-0.8,1.3-1.3
			c0.8-0.9,1.6-1.8,2.4-2.7c0,0,0.1-0.1,0.1-0.1L1128.9,106.1z"/>
		<polygon class="st1" points="610.2,117.5 610.2,99.7 660.3,99.7 660.3,69.5 610.2,69.5 610.2,50.8 675.2,50.8 675.2,11.8 
			571.3,11.3 571.3,156.4 677.8,156.4 677.8,117.5 		"/>
		<path class="st1" d="M215.4,11.4l-62.5,0v144.9h38.9v-39.9h23.5c29,0,52.5-23.5,52.5-52.5S244.4,11.4,215.4,11.4z M215.4,77.3
			h-23.5V50.6h23.5c7.4,0,13.4,6,13.4,13.4S222.8,77.3,215.4,77.3z"/>
		<g>
			<g>
				<path class="st1" d="M78.8,156.6l-61.7,0l11.8-39.3h49.9c3.8,0,6.8-3.1,6.8-6.8s-3.1-6.8-6.8-6.8H53.7
					c-25.5,0-46.2-20.7-46.2-46.2s20.7-46.2,46.2-46.2h62.2l-11.4,39.4H53.7c-3.8,0-6.9,3.1-6.9,6.9c0,3.8,3.1,6.9,6.9,6.9h25.1
					c25.5,0,46.2,20.7,46.2,46.2C125.1,135.9,104.3,156.6,78.8,156.6z"/>
			</g>
		</g>
		<g>
			<g>
				<path class="st1" d="M771,156.6l-61.7,0l11.8-39.3H771c3.8,0,6.8-3.1,6.8-6.8s-3.1-6.8-6.8-6.8h-25.1
					c-25.5,0-46.2-20.7-46.2-46.2s20.7-46.2,46.2-46.2h62.2l-11.4,39.4h-50.8c-3.8,0-6.8,3.1-6.8,6.9c0,3.8,3.1,6.9,6.8,6.9H771
					c25.5,0,46.2,20.7,46.2,46.2C817.3,135.9,796.5,156.6,771,156.6z"/>
			</g>
		</g>
		<circle class="st1" cx="985.1" cy="134.4" r="23.1"/>
		<polygon class="st1" points="1411,61.7 1340.3,11.3 1340.3,153.6 1379.7,153.6 1379.7,83.2 1411,105.6 1442.2,83.2 1442.2,153.6 
			1481.6,153.6 1481.6,11.3 		"/>
	</g>
	<g>
		<path class="st1" d="M1144.4,252.5c-2.6-2.6-5.8-4.7-9.4-6.2c-3.6-1.5-7.6-2.3-11.9-2.3s-8.3,0.8-11.9,2.3
			c-3.6,1.5-6.8,3.6-9.4,6.2s-4.7,5.7-6.2,9.2c-1.5,3.5-2.2,7.3-2.2,11.3v0.2c0,4,0.7,7.8,2.2,11.2c1.5,3.5,3.5,6.6,6.2,9.2
			c2.6,2.6,5.8,4.7,9.4,6.2c3.6,1.5,7.6,2.3,11.9,2.3s8.3-0.8,11.9-2.3c3.6-1.5,6.8-3.6,9.4-6.2s4.7-5.7,6.2-9.2
			c1.5-3.5,2.2-7.3,2.2-11.3v-0.2c0-4-0.7-7.8-2.2-11.3C1149.1,258.2,1147,255.1,1144.4,252.5z M1123.1,289.1
			c-2.3,0-4.3-0.4-6.2-1.3c-1.8-0.8-3.5-2-4.9-3.5c-1.4-1.4-2.4-3.2-3.2-5.1c-0.8-1.9-1.1-4-1.1-6.2v-0.2c0-2.2,0.4-4.3,1.1-6.2
			c0.8-1.9,1.8-3.6,3.1-5.1c1.3-1.4,2.9-2.6,4.8-3.4c1.8-0.8,3.9-1.2,6.2-1.2c2.2,0,4.3,0.4,6.2,1.3c1.9,0.8,3.5,2,4.9,3.5
			c1.4,1.4,2.4,3.2,3.2,5.1c0.8,1.9,1.1,4,1.1,6.2v0.2c0,2.2-0.4,4.3-1.1,6.2c-0.8,1.9-1.8,3.6-3.1,5.1c-1.3,1.4-2.9,2.6-4.8,3.4
			C1127.4,288.7,1125.3,289.1,1123.1,289.1z"/>
		<path class="st1" d="M1210.1,252.5c-2.6-2.6-5.8-4.7-9.4-6.2c-3.6-1.5-7.6-2.3-11.9-2.3s-8.3,0.8-11.9,2.3
			c-3.6,1.5-6.8,3.6-9.4,6.2s-4.7,5.7-6.2,9.2c-1.5,3.5-2.2,7.3-2.2,11.3v0.2c0,4,0.7,7.8,2.2,11.2c1.5,3.5,3.5,6.6,6.2,9.2
			c2.6,2.6,5.8,4.7,9.4,6.2c3.6,1.5,7.6,2.3,11.9,2.3s8.3-0.8,11.9-2.3c3.6-1.5,6.8-3.6,9.4-6.2s4.7-5.7,6.2-9.2
			c1.5-3.5,2.2-7.3,2.2-11.3v-0.2c0-4-0.7-7.8-2.2-11.3C1214.8,258.2,1212.7,255.1,1210.1,252.5z M1188.8,289.1
			c-2.3,0-4.3-0.4-6.2-1.3c-1.8-0.8-3.5-2-4.9-3.5c-1.4-1.4-2.4-3.2-3.2-5.1c-0.8-1.9-1.1-4-1.1-6.2v-0.2c0-2.2,0.4-4.3,1.1-6.2
			c0.8-1.9,1.8-3.6,3.1-5.1c1.3-1.4,2.9-2.6,4.8-3.4c1.8-0.8,3.9-1.2,6.2-1.2c2.2,0,4.3,0.4,6.2,1.3c1.9,0.8,3.5,2,4.9,3.5
			c1.4,1.4,2.4,3.2,3.2,5.1c0.8,1.9,1.1,4,1.1,6.2v0.2c0,2.2-0.4,4.3-1.1,6.2c-0.8,1.9-1.8,3.6-3.1,5.1c-1.3,1.4-2.9,2.6-4.8,3.4
			C1193.1,288.7,1191,289.1,1188.8,289.1z"/>
		<path class="st1" d="M1280.1,245h-9.6c-1.1,0-2.1,0.5-2.6,1.5l-11.8,19c-0.2,0.3-0.5,0.5-0.9,0.5s-0.7-0.2-0.9-0.5l-11.8-19
			c-0.6-0.9-1.6-1.5-2.6-1.5h-9.6c-1.7,0-3.1,1.4-3.1,3.1v50c0,1.7,1.4,3.1,3.1,3.1h7.6c1.7,0,3.1-1.4,3.1-3.1V272
			c0-0.7,0.6-1,0.8-1c0.2,0,0.8-0.2,1.2,0.4l11.2,17c0.2,0.4,0.7,0.6,1.1,0.6c0.4,0,0.8-0.2,1.1-0.6l11.3-17.2
			c0.4-0.6,1-0.5,1.2-0.4c0.2,0,0.8,0.3,0.8,1v26.3c0,1.7,1.4,3.1,3.1,3.1h7.6c1.7,0,3.1-1.4,3.1-3.1v-50
			C1283.2,246.4,1281.8,245,1280.1,245z"/>
		<path class="st1" d="M1332,288.4h-22.8c-0.6,0-1.1-0.5-1.1-1.1v-39.2c0-1.7-1.4-3.1-3.1-3.1h-7.7c-1.7,0-3.1,1.4-3.1,3.1v50
			c0,1.7,1.4,3.1,3.1,3.1h34.7c1.7,0,3.1-1.4,3.1-3.1v-6.6C1335.1,289.8,1333.7,288.4,1332,288.4z"/>
		<path class="st1" d="M1382.1,288.5h-25.2c-0.6,0-1.1-0.5-1.1-1.1v-7.2c0-0.6,0.5-1.1,1.1-1.1h21.3c1.7,0,3.1-1.4,3.1-3.1v-6.4
			c0-1.7-1.4-3.1-3.1-3.1h-21.3c-0.6,0-1.1-0.5-1.1-1.1v-6.8c0-0.6,0.5-1.1,1.1-1.1h24.8c1.7,0,3.1-1.4,3.1-3.1v-6.4
			c0-1.7-1.4-3.1-3.1-3.1h-36.6c-1.7,0-3.1,1.4-3.1,3.1v50c0,1.7,1.4,3.1,3.1,3.1h37c1.7,0,3.1-1.4,3.1-3.1v-6.4
			C1385.2,289.9,1383.8,288.5,1382.1,288.5z"/>
		<path class="st1" d="M1430.2,272.7c-1.6-1.3-3.5-2.5-5.7-3.4c-2.2-0.9-4.7-1.8-7.5-2.5c-2.3-0.6-4.2-1.2-5.7-1.6
			c-1.4-0.4-2.6-0.9-3.4-1.4c-0.7-0.4-1.2-0.9-1.4-1.3c-0.3-0.5-0.4-1.1-0.4-1.8v-0.2c0-1,0.4-1.9,1.3-2.6c1-0.8,2.5-1.1,4.6-1.1
			c2.2,0,4.4,0.5,6.6,1.3c1.7,0.7,3.5,1.6,5.3,2.8c1.4,0.9,3.2,0.5,4.2-0.9l3.9-5.6c1-1.4,0.6-3.3-0.8-4.3c-2.4-1.7-5-3-7.7-4
			c-3.4-1.2-7.2-1.8-11.3-1.8c-2.9,0-5.6,0.4-8,1.2c-2.4,0.8-4.6,2-6.3,3.5c-1.8,1.5-3.2,3.4-4.1,5.5c-1,2.1-1.5,4.5-1.5,7.1v0.2
			c0,2.8,0.5,5.2,1.4,7.2c0.9,1.9,2.2,3.6,3.9,4.9c1.6,1.3,3.6,2.3,5.9,3.2c2.2,0.8,4.8,1.6,7.6,2.3c2.2,0.6,4.1,1.1,5.4,1.6
			c1.3,0.5,2.4,1,3.1,1.5c0.6,0.4,1.1,0.8,1.3,1.2c0.2,0.5,0.3,1,0.3,1.6v0.2c0,1.3-0.5,2.2-1.6,2.9c-1.2,0.8-2.9,1.2-5.2,1.2
			c-2.9,0-5.7-0.6-8.1-1.7c-2-0.9-4-2.1-5.9-3.5c-1.3-1-3.2-0.8-4.2,0.5l-4.4,5.3c-0.5,0.6-0.8,1.5-0.7,2.3c0.1,0.8,0.5,1.6,1.2,2.1
			c2.9,2.3,6.1,4.1,9.5,5.3c4.1,1.5,8.3,2.2,12.5,2.2c3,0,5.8-0.4,8.3-1.2c2.5-0.8,4.7-1.9,6.6-3.4c1.8-1.5,3.3-3.4,4.3-5.6
			c1-2.2,1.6-4.8,1.6-7.6V284c0-2.5-0.4-4.7-1.2-6.5C1433,275.6,1431.8,274,1430.2,272.7z"/>
		<path class="st1" d="M1482.9,277.5c-0.8-1.8-2-3.5-3.6-4.8c-1.6-1.3-3.5-2.5-5.7-3.4c-2.2-0.9-4.7-1.8-7.5-2.5
			c-2.3-0.6-4.2-1.2-5.7-1.6c-1.4-0.4-2.6-0.9-3.4-1.4c-0.7-0.4-1.2-0.9-1.4-1.3c-0.3-0.5-0.4-1.1-0.4-1.8v-0.2c0-1,0.4-1.9,1.3-2.6
			c1-0.8,2.5-1.1,4.6-1.1c2.2,0,4.4,0.5,6.6,1.3c1.7,0.7,3.5,1.6,5.3,2.8c1.4,0.9,3.2,0.5,4.2-0.9l3.9-5.6c1-1.4,0.6-3.3-0.8-4.3
			c-2.4-1.7-5-3-7.7-4c-3.4-1.2-7.2-1.8-11.3-1.8c-2.9,0-5.6,0.4-8,1.2c-2.4,0.8-4.6,2-6.3,3.5c-1.8,1.5-3.2,3.4-4.1,5.5
			c-1,2.1-1.5,4.5-1.5,7.1v0.2c0,2.8,0.5,5.2,1.4,7.2c0.9,1.9,2.2,3.6,3.9,4.9c1.6,1.3,3.6,2.3,5.9,3.2c2.2,0.8,4.8,1.6,7.6,2.3
			c2.2,0.6,4.1,1.1,5.4,1.6c1.3,0.5,2.4,1,3.1,1.5c0.6,0.4,1.1,0.8,1.3,1.2c0.2,0.5,0.3,1,0.3,1.6v0.2c0,1.3-0.5,2.2-1.6,2.9
			c-1.2,0.8-2.9,1.2-5.2,1.2c-2.9,0-5.7-0.6-8.1-1.7c-2-0.9-4-2.1-5.9-3.5c-1.3-1-3.2-0.8-4.2,0.5l-4.4,5.3
			c-0.5,0.6-0.8,1.5-0.7,2.3c0.1,0.8,0.5,1.6,1.2,2.1c2.9,2.3,6.1,4.1,9.5,5.3c4.1,1.5,8.3,2.2,12.5,2.2c3,0,5.8-0.4,8.3-1.2
			c2.5-0.8,4.7-1.9,6.6-3.4c1.8-1.5,3.3-3.4,4.3-5.6c1-2.2,1.6-4.8,1.6-7.6V284C1484.1,281.5,1483.7,279.3,1482.9,277.5z"/>
		<g>
			<path class="st1" d="M1086.3,252.7c0-4.9-1.3-9.8-3.8-14c-2.7-4.7-6.7-8.7-11.6-11.5l0,0c-4.9-2.8-10.9-4.5-17.9-4.8
				c-1.2,0-1.7-0.1-2.8-0.1c-5.3,0-9.7,0.5-13.3,0.9c-0.4,0-0.8,0.1-1.2,0.1c-2.5,0.3-4.5,0.5-6.2,0.8c-1.6,0.2-2.8,1.6-2.8,3.3
				v71.4c0,0.6,0.2,1.2,0.7,1.6c0.4,0.4,1,0.7,1.6,0.7l0,0h6.8c1.5,0,2.8-1,3.2-2.4l7.7-28.4c0.4-1.4-0.2-2.8-1.4-3.7
				c-3.4-2.3-5.8-6-6.5-10.1c-0.1-0.8-0.2-1.6-0.2-2.4c0-8.3,6.8-15.1,15.1-15.1s15.1,6.8,15.1,15.1c0,0.8-0.1,1.6-0.2,2.4
				c-0.7,4.1-3,7.8-6.5,10.1c-1.2,0.8-1.8,2.3-1.4,3.7l7.8,28.8c0.3,1.2,1.4,2.1,2.7,2.1h11.1c0.8,0,1.6-0.4,2-1.1
				c0.5-0.7,0.6-1.5,0.3-2.3l-6.8-20.5c-0.6-1.6-0.2-3.5,1-5c4.1-4.8,6.2-9.6,7.1-16C1086.2,255.1,1086.3,253.9,1086.3,252.7z"/>
		</g>
	</g>
	<g>
		<path class="st1" d="M917.1,261c0-0.5,0.4-1,1-1h17.9c4.7,0,8.2,1.2,10.6,3.6c1.9,1.9,2.8,4.2,2.8,6.9v0.1c0,1.2-0.1,2.2-0.4,3.1
			s-0.7,1.7-1.2,2.4c-0.5,0.7-1,1.3-1.7,1.9c-0.6,0.5-1.3,1-2.1,1.4c2.3,0.9,4.2,2.1,5.6,3.6c1.3,1.5,2,3.7,2,6.4v0.1
			c0,1.9-0.4,3.5-1.1,4.9c-0.7,1.4-1.7,2.6-3.1,3.5c-1.3,0.9-2.9,1.6-4.8,2.1s-3.9,0.7-6.2,0.7H918c-0.6,0-1-0.5-1-1L917.1,261
			L917.1,261z M934,276.5c2,0,3.5-0.3,4.7-1c1.2-0.7,1.7-1.8,1.7-3.3V272c0-1.4-0.5-2.4-1.5-3.1s-2.5-1.1-4.4-1.1h-7.8
			c-0.6,0-1,0.5-1,1v6.6c0,0.5,0.4,1,1,1L934,276.5L934,276.5z M936.4,292.9c2,0,3.5-0.4,4.7-1.1c1.1-0.7,1.7-1.8,1.7-3.3v-0.1
			c0-1.4-0.5-2.4-1.6-3.2c-1.1-0.8-2.7-1.2-5.1-1.2h-9.3c-0.6,0-1,0.5-1,1v7c0,0.5,0.4,1,1,1H936.4z"/>
		<path class="st1" d="M970.3,284.4l-14.5-22.9c-0.4-0.7,0.1-1.5,0.8-1.5h8.1c0.3,0,0.7,0.2,0.9,0.5l8.6,14.4c0.4,0.7,1.3,0.7,1.7,0
			l8.7-14.4c0.2-0.3,0.5-0.5,0.8-0.5h7.8c0.8,0,1.3,0.9,0.8,1.5l-14.5,22.7c-0.1,0.2-0.2,0.3-0.2,0.5v14.9c0,0.5-0.4,1-1,1h-7
			c-0.6,0-1-0.5-1-1V285C970.4,284.8,970.4,284.6,970.3,284.4z"/>
	</g>
</g>
</svg>
